<mxfile host="app.diagrams.net" agent="Mozilla/5.0 (Windows NT 10.0; Win64; x64) AppleWebKit/537.36 (KHTML, like Gecko) Chrome/137.0.0.0 Safari/537.36" version="27.1.4">
  <diagram name="Page-1" id="2YBvvXClWsGukQMizWep">
    <mxGraphModel dx="2760" dy="1500" grid="1" gridSize="10" guides="1" tooltips="1" connect="1" arrows="1" fold="1" page="1" pageScale="1" pageWidth="850" pageHeight="1100" math="0" shadow="0">
      <root>
        <mxCell id="0" />
        <mxCell id="1" parent="0" />
        <mxCell id="inVpBBwWjXf6P8Z2ml2F-600" value="" style="rounded=0;whiteSpace=wrap;html=1;movable=0;resizable=0;rotatable=0;deletable=0;editable=0;locked=1;connectable=0;" vertex="1" parent="1">
          <mxGeometry x="810" y="360" width="2590" height="3690" as="geometry" />
        </mxCell>
        <mxCell id="inVpBBwWjXf6P8Z2ml2F-599" value="" style="endArrow=none;html=1;edgeStyle=orthogonalEdgeStyle;rounded=0;dashed=1;entryX=0.5;entryY=0;entryDx=0;entryDy=0;exitX=0.5;exitY=1;exitDx=0;exitDy=0;" edge="1" parent="1" target="inVpBBwWjXf6P8Z2ml2F-416">
          <mxGeometry relative="1" as="geometry">
            <mxPoint x="2020" y="2418" as="sourcePoint" />
            <mxPoint x="2013" y="3260" as="targetPoint" />
            <Array as="points">
              <mxPoint x="2013" y="2418" />
            </Array>
          </mxGeometry>
        </mxCell>
        <mxCell id="inVpBBwWjXf6P8Z2ml2F-444" value="" style="endArrow=none;html=1;edgeStyle=orthogonalEdgeStyle;rounded=0;exitX=0.5;exitY=1;exitDx=0;exitDy=0;dashed=1;entryX=0.5;entryY=0;entryDx=0;entryDy=0;" edge="1" parent="1" target="inVpBBwWjXf6P8Z2ml2F-596">
          <mxGeometry relative="1" as="geometry">
            <mxPoint x="2849.5" y="2417.88" as="sourcePoint" />
            <mxPoint x="2940" y="3830" as="targetPoint" />
            <Array as="points">
              <mxPoint x="2850" y="2410" />
              <mxPoint x="2851" y="3880" />
            </Array>
          </mxGeometry>
        </mxCell>
        <mxCell id="inVpBBwWjXf6P8Z2ml2F-523" value="" style="endArrow=none;html=1;edgeStyle=orthogonalEdgeStyle;rounded=0;exitX=0.5;exitY=1;exitDx=0;exitDy=0;dashed=1;entryX=0.5;entryY=0;entryDx=0;entryDy=0;" edge="1" parent="1" target="inVpBBwWjXf6P8Z2ml2F-451">
          <mxGeometry relative="1" as="geometry">
            <mxPoint x="2704.5" y="2417.88" as="sourcePoint" />
            <mxPoint x="2710.000000000001" y="4250.17" as="targetPoint" />
            <Array as="points">
              <mxPoint x="2705" y="2410" />
              <mxPoint x="2706" y="3880" />
            </Array>
          </mxGeometry>
        </mxCell>
        <mxCell id="inVpBBwWjXf6P8Z2ml2F-351" value="" style="endArrow=none;html=1;edgeStyle=orthogonalEdgeStyle;rounded=0;exitX=0.5;exitY=1;exitDx=0;exitDy=0;dashed=1;entryX=0.378;entryY=0.095;entryDx=0;entryDy=0;entryPerimeter=0;" edge="1" parent="1" source="inVpBBwWjXf6P8Z2ml2F-515" target="inVpBBwWjXf6P8Z2ml2F-358">
          <mxGeometry relative="1" as="geometry">
            <mxPoint x="2350" y="667.88" as="sourcePoint" />
            <mxPoint x="2351" y="2230" as="targetPoint" />
            <Array as="points" />
          </mxGeometry>
        </mxCell>
        <mxCell id="inVpBBwWjXf6P8Z2ml2F-322" value="" style="html=1;points=[[0,0,0,0,5],[0,1,0,0,-5],[1,0,0,0,5],[1,1,0,0,-5]];perimeter=orthogonalPerimeter;outlineConnect=0;targetShapes=umlLifeline;portConstraint=eastwest;newEdgeStyle={&quot;curved&quot;:0,&quot;rounded&quot;:0};" vertex="1" parent="1">
          <mxGeometry x="2350" y="1790" width="10" height="40" as="geometry" />
        </mxCell>
        <mxCell id="inVpBBwWjXf6P8Z2ml2F-1" value="" style="endArrow=none;html=1;edgeStyle=orthogonalEdgeStyle;rounded=0;dashed=1;entryX=0.25;entryY=0;entryDx=0;entryDy=0;" edge="1" parent="1" source="inVpBBwWjXf6P8Z2ml2F-73" target="inVpBBwWjXf6P8Z2ml2F-63">
          <mxGeometry relative="1" as="geometry">
            <mxPoint x="2170" y="581.4438763786766" as="sourcePoint" />
            <mxPoint x="2152.55" y="2020" as="targetPoint" />
            <Array as="points">
              <mxPoint x="2170" y="2010" />
            </Array>
          </mxGeometry>
        </mxCell>
        <mxCell id="inVpBBwWjXf6P8Z2ml2F-2" value="" style="endArrow=none;html=1;edgeStyle=orthogonalEdgeStyle;rounded=0;exitX=0.5;exitY=1;exitDx=0;exitDy=0;dashed=1;entryX=0.5;entryY=0;entryDx=0;entryDy=0;" edge="1" parent="1" target="inVpBBwWjXf6P8Z2ml2F-65" source="inVpBBwWjXf6P8Z2ml2F-11">
          <mxGeometry relative="1" as="geometry">
            <mxPoint x="2513.89" y="757.8800000000001" as="sourcePoint" />
            <mxPoint x="2514.37" y="2177.88" as="targetPoint" />
            <Array as="points">
              <mxPoint x="2515" y="668" />
            </Array>
          </mxGeometry>
        </mxCell>
        <mxCell id="inVpBBwWjXf6P8Z2ml2F-3" value="" style="endArrow=none;html=1;edgeStyle=orthogonalEdgeStyle;rounded=0;dashed=1;entryX=0.5;entryY=0;entryDx=0;entryDy=0;" edge="1" parent="1" target="inVpBBwWjXf6P8Z2ml2F-62">
          <mxGeometry relative="1" as="geometry">
            <mxPoint x="2004" y="670" as="sourcePoint" />
            <mxPoint x="2004.17" y="2020" as="targetPoint" />
            <Array as="points">
              <mxPoint x="2004" y="2020" />
            </Array>
          </mxGeometry>
        </mxCell>
        <mxCell id="inVpBBwWjXf6P8Z2ml2F-4" value=":Doctor" style="shape=umlActor;verticalLabelPosition=bottom;verticalAlign=top;html=1;" vertex="1" parent="1">
          <mxGeometry x="1030" y="607.8800000000001" width="30" height="60" as="geometry" />
        </mxCell>
        <mxCell id="inVpBBwWjXf6P8Z2ml2F-5" value=":/set-availability" style="html=1;whiteSpace=wrap;fontStyle=1" vertex="1" parent="1">
          <mxGeometry x="1950" y="637.8800000000001" width="110" height="30" as="geometry" />
        </mxCell>
        <mxCell id="inVpBBwWjXf6P8Z2ml2F-6" value=":/doctor-appointments-by- status" style="html=1;whiteSpace=wrap;fontStyle=1" vertex="1" parent="1">
          <mxGeometry x="2070" y="637.88" width="190" height="30" as="geometry" />
        </mxCell>
        <mxCell id="inVpBBwWjXf6P8Z2ml2F-7" value="" style="endArrow=none;html=1;edgeStyle=orthogonalEdgeStyle;rounded=0;dashed=1;" edge="1" parent="1">
          <mxGeometry relative="1" as="geometry">
            <mxPoint x="1045" y="2050" as="sourcePoint" />
            <mxPoint x="1044.9099999999999" y="717.8800000000001" as="targetPoint" />
            <Array as="points">
              <mxPoint x="1044.9099999999999" y="687.8800000000001" />
              <mxPoint x="1044.9099999999999" y="687.8800000000001" />
            </Array>
          </mxGeometry>
        </mxCell>
        <mxCell id="inVpBBwWjXf6P8Z2ml2F-8" value="" style="html=1;points=[[0,0,0,0,5],[0,1,0,0,-5],[1,0,0,0,5],[1,1,0,0,-5]];perimeter=orthogonalPerimeter;outlineConnect=0;targetShapes=umlLifeline;portConstraint=eastwest;newEdgeStyle={&quot;curved&quot;:0,&quot;rounded&quot;:0};" vertex="1" parent="1">
          <mxGeometry x="1040" y="707.88" width="10" height="1232.12" as="geometry" />
        </mxCell>
        <mxCell id="inVpBBwWjXf6P8Z2ml2F-9" value=":/get-my-ratings" style="html=1;whiteSpace=wrap;fontStyle=1" vertex="1" parent="1">
          <mxGeometry x="1545" y="637.8800000000001" width="110" height="30" as="geometry" />
        </mxCell>
        <mxCell id="inVpBBwWjXf6P8Z2ml2F-11" value=":/set-diagnosis" style="html=1;whiteSpace=wrap;fontStyle=1" vertex="1" parent="1">
          <mxGeometry x="2450" y="637.8800000000001" width="120" height="30" as="geometry" />
        </mxCell>
        <mxCell id="inVpBBwWjXf6P8Z2ml2F-12" value=":/login" style="html=1;whiteSpace=wrap;fontStyle=1" vertex="1" parent="1">
          <mxGeometry x="1215" y="637.8800000000001" width="200" height="30" as="geometry" />
        </mxCell>
        <mxCell id="inVpBBwWjXf6P8Z2ml2F-13" value="" style="endArrow=none;html=1;edgeStyle=orthogonalEdgeStyle;rounded=0;exitX=0.5;exitY=1;exitDx=0;exitDy=0;dashed=1;entryX=0.5;entryY=0;entryDx=0;entryDy=0;" edge="1" parent="1" source="inVpBBwWjXf6P8Z2ml2F-19" target="inVpBBwWjXf6P8Z2ml2F-66">
          <mxGeometry relative="1" as="geometry">
            <mxPoint x="1764.23" y="720" as="sourcePoint" />
            <mxPoint x="1315" y="2200" as="targetPoint" />
            <Array as="points" />
          </mxGeometry>
        </mxCell>
        <mxCell id="inVpBBwWjXf6P8Z2ml2F-14" style="edgeStyle=none;shape=link;rounded=0;orthogonalLoop=1;jettySize=auto;html=1;" edge="1" parent="1" source="inVpBBwWjXf6P8Z2ml2F-16">
          <mxGeometry relative="1" as="geometry">
            <mxPoint x="2750" y="725" as="targetPoint" />
          </mxGeometry>
        </mxCell>
        <mxCell id="inVpBBwWjXf6P8Z2ml2F-15" style="edgeStyle=none;shape=link;rounded=0;orthogonalLoop=1;jettySize=auto;html=1;" edge="1" parent="1" source="inVpBBwWjXf6P8Z2ml2F-16" target="inVpBBwWjXf6P8Z2ml2F-8">
          <mxGeometry relative="1" as="geometry" />
        </mxCell>
        <mxCell id="inVpBBwWjXf6P8Z2ml2F-16" value="Doctor Registration" style="html=1;whiteSpace=wrap;fontStyle=1" vertex="1" parent="1">
          <mxGeometry x="1795" y="710" width="180" height="30" as="geometry" />
        </mxCell>
        <mxCell id="inVpBBwWjXf6P8Z2ml2F-17" value="1. register(licenseID, fullName, username, email,&lt;div&gt;&amp;nbsp;specialty,&amp;nbsp;&lt;span style=&quot;background-color: light-dark(#ffffff, var(--ge-dark-color, #121212)); color: light-dark(rgb(0, 0, 0), rgb(255, 255, 255));&quot;&gt;phone, bio, location, password)&lt;/span&gt;&lt;/div&gt;" style="html=1;verticalAlign=bottom;endArrow=block;edgeStyle=elbowEdgeStyle;elbow=horizontal;curved=0;rounded=0;" edge="1" parent="1">
          <mxGeometry relative="1" as="geometry">
            <mxPoint x="1050" y="780" as="sourcePoint" />
            <Array as="points" />
            <mxPoint x="1310" y="780" as="targetPoint" />
            <mxPoint as="offset" />
          </mxGeometry>
        </mxCell>
        <mxCell id="inVpBBwWjXf6P8Z2ml2F-18" value="" style="endArrow=none;html=1;edgeStyle=orthogonalEdgeStyle;rounded=0;dashed=1;exitX=0.5;exitY=1;exitDx=0;exitDy=0;" edge="1" parent="1" source="inVpBBwWjXf6P8Z2ml2F-12" target="inVpBBwWjXf6P8Z2ml2F-19">
          <mxGeometry relative="1" as="geometry">
            <mxPoint x="1315" y="700" as="sourcePoint" />
            <mxPoint x="1474" y="1330" as="targetPoint" />
            <Array as="points">
              <mxPoint x="1315" y="750" />
              <mxPoint x="1315" y="750" />
            </Array>
          </mxGeometry>
        </mxCell>
        <mxCell id="inVpBBwWjXf6P8Z2ml2F-19" value="" style="html=1;points=[[0,0,0,0,5],[0,1,0,0,-5],[1,0,0,0,5],[1,1,0,0,-5]];perimeter=orthogonalPerimeter;outlineConnect=0;targetShapes=umlLifeline;portConstraint=eastwest;newEdgeStyle={&quot;curved&quot;:0,&quot;rounded&quot;:0};" vertex="1" parent="1">
          <mxGeometry x="1310" y="780" width="10" height="30" as="geometry" />
        </mxCell>
        <mxCell id="inVpBBwWjXf6P8Z2ml2F-20" value="2. registrationConfirmation - message" style="html=1;verticalAlign=bottom;endArrow=block;edgeStyle=elbowEdgeStyle;elbow=horizontal;curved=0;rounded=0;" edge="1" parent="1">
          <mxGeometry x="0.4937" relative="1" as="geometry">
            <mxPoint x="1060" y="810" as="sourcePoint" />
            <Array as="points">
              <mxPoint x="1310" y="810" />
            </Array>
            <mxPoint x="1050" y="810" as="targetPoint" />
            <mxPoint as="offset" />
          </mxGeometry>
        </mxCell>
        <mxCell id="inVpBBwWjXf6P8Z2ml2F-21" style="edgeStyle=none;shape=link;rounded=0;orthogonalLoop=1;jettySize=auto;html=1;" edge="1" parent="1" source="inVpBBwWjXf6P8Z2ml2F-22">
          <mxGeometry relative="1" as="geometry">
            <mxPoint x="2760" y="855" as="targetPoint" />
          </mxGeometry>
        </mxCell>
        <mxCell id="inVpBBwWjXf6P8Z2ml2F-22" value="Doctor Login" style="html=1;whiteSpace=wrap;fontStyle=1" vertex="1" parent="1">
          <mxGeometry x="1795" y="840" width="180" height="30" as="geometry" />
        </mxCell>
        <mxCell id="inVpBBwWjXf6P8Z2ml2F-23" style="edgeStyle=none;shape=link;rounded=0;orthogonalLoop=1;jettySize=auto;html=1;" edge="1" parent="1" source="inVpBBwWjXf6P8Z2ml2F-25">
          <mxGeometry relative="1" as="geometry">
            <mxPoint x="2753.729529747596" y="995" as="targetPoint" />
          </mxGeometry>
        </mxCell>
        <mxCell id="inVpBBwWjXf6P8Z2ml2F-24" style="edgeStyle=none;shape=link;rounded=0;orthogonalLoop=1;jettySize=auto;html=1;" edge="1" parent="1" source="inVpBBwWjXf6P8Z2ml2F-25" target="inVpBBwWjXf6P8Z2ml2F-8">
          <mxGeometry relative="1" as="geometry">
            <mxPoint x="1460" y="995" as="targetPoint" />
          </mxGeometry>
        </mxCell>
        <mxCell id="inVpBBwWjXf6P8Z2ml2F-25" value="Manage Availability" style="html=1;whiteSpace=wrap;fontStyle=1" vertex="1" parent="1">
          <mxGeometry x="1790" y="980" width="180" height="30" as="geometry" />
        </mxCell>
        <mxCell id="inVpBBwWjXf6P8Z2ml2F-26" value="1. setAvailability(timestamp, doctorID)" style="html=1;verticalAlign=bottom;endArrow=block;edgeStyle=elbowEdgeStyle;elbow=vertical;curved=0;rounded=0;" edge="1" parent="1">
          <mxGeometry x="-0.1368" relative="1" as="geometry">
            <mxPoint x="1050" y="1050" as="sourcePoint" />
            <Array as="points">
              <mxPoint x="1170" y="1050" />
            </Array>
            <mxPoint x="2000" y="1050" as="targetPoint" />
            <mxPoint as="offset" />
          </mxGeometry>
        </mxCell>
        <mxCell id="inVpBBwWjXf6P8Z2ml2F-27" value="" style="html=1;points=[[0,0,0,0,5],[0,1,0,0,-5],[1,0,0,0,5],[1,1,0,0,-5]];perimeter=orthogonalPerimeter;outlineConnect=0;targetShapes=umlLifeline;portConstraint=eastwest;newEdgeStyle={&quot;curved&quot;:0,&quot;rounded&quot;:0};" vertex="1" parent="1">
          <mxGeometry x="2000" y="1050" width="10" height="40.18" as="geometry" />
        </mxCell>
        <mxCell id="inVpBBwWjXf6P8Z2ml2F-33" style="edgeStyle=none;shape=link;rounded=0;orthogonalLoop=1;jettySize=auto;html=1;" edge="1" parent="1" source="inVpBBwWjXf6P8Z2ml2F-35">
          <mxGeometry relative="1" as="geometry">
            <mxPoint x="2753.729529747596" y="1165" as="targetPoint" />
          </mxGeometry>
        </mxCell>
        <mxCell id="inVpBBwWjXf6P8Z2ml2F-34" style="edgeStyle=none;shape=link;rounded=0;orthogonalLoop=1;jettySize=auto;html=1;" edge="1" parent="1" source="inVpBBwWjXf6P8Z2ml2F-35">
          <mxGeometry relative="1" as="geometry">
            <mxPoint x="1050.0000000000005" y="1165" as="targetPoint" />
          </mxGeometry>
        </mxCell>
        <mxCell id="inVpBBwWjXf6P8Z2ml2F-35" value="View Appointment Details" style="html=1;whiteSpace=wrap;fontStyle=1" vertex="1" parent="1">
          <mxGeometry x="1795" y="1150" width="180" height="30" as="geometry" />
        </mxCell>
        <mxCell id="inVpBBwWjXf6P8Z2ml2F-36" value="1. getAppointmentsByStatus(doctorID, status)" style="html=1;verticalAlign=bottom;endArrow=block;edgeStyle=elbowEdgeStyle;elbow=vertical;curved=0;rounded=0;exitX=1;exitY=0.445;exitDx=0;exitDy=0;exitPerimeter=0;" edge="1" parent="1" target="inVpBBwWjXf6P8Z2ml2F-73">
          <mxGeometry x="0.3096" relative="1" as="geometry">
            <mxPoint x="1050.0000000000005" y="1210" as="sourcePoint" />
            <Array as="points" />
            <mxPoint x="2150" y="1210.27" as="targetPoint" />
            <mxPoint as="offset" />
          </mxGeometry>
        </mxCell>
        <mxCell id="inVpBBwWjXf6P8Z2ml2F-37" value="2. list of appointments" style="html=1;verticalAlign=bottom;endArrow=block;edgeStyle=elbowEdgeStyle;elbow=horizontal;curved=0;rounded=0;" edge="1" parent="1">
          <mxGeometry x="0.0201" relative="1" as="geometry">
            <mxPoint x="1795" y="1240" as="sourcePoint" />
            <Array as="points">
              <mxPoint x="2165" y="1240" />
            </Array>
            <mxPoint x="1045.0000000000005" y="1240" as="targetPoint" />
            <mxPoint as="offset" />
          </mxGeometry>
        </mxCell>
        <mxCell id="inVpBBwWjXf6P8Z2ml2F-38" style="edgeStyle=none;shape=link;rounded=0;orthogonalLoop=1;jettySize=auto;html=1;" edge="1" parent="1" source="inVpBBwWjXf6P8Z2ml2F-40">
          <mxGeometry relative="1" as="geometry">
            <mxPoint x="2753.729529747596" y="1355" as="targetPoint" />
          </mxGeometry>
        </mxCell>
        <mxCell id="inVpBBwWjXf6P8Z2ml2F-39" style="edgeStyle=none;shape=link;rounded=0;orthogonalLoop=1;jettySize=auto;html=1;" edge="1" parent="1" source="inVpBBwWjXf6P8Z2ml2F-40">
          <mxGeometry relative="1" as="geometry">
            <mxPoint x="1050.0000000000005" y="1355" as="targetPoint" />
          </mxGeometry>
        </mxCell>
        <mxCell id="inVpBBwWjXf6P8Z2ml2F-40" value="Optional: Cancel Appointment" style="html=1;whiteSpace=wrap;fontStyle=1" vertex="1" parent="1">
          <mxGeometry x="1790" y="1340" width="180" height="30" as="geometry" />
        </mxCell>
        <mxCell id="inVpBBwWjXf6P8Z2ml2F-41" value="&lt;b&gt;opt&lt;/b&gt;" style="shape=umlFrame;whiteSpace=wrap;html=1;pointerEvents=0;" vertex="1" parent="1">
          <mxGeometry x="1490" y="1390" width="1260" height="190" as="geometry" />
        </mxCell>
        <mxCell id="inVpBBwWjXf6P8Z2ml2F-42" value="&lt;b&gt;[ if cancellation is needed ]&lt;/b&gt;" style="text;html=1;align=center;verticalAlign=middle;resizable=0;points=[];autosize=1;strokeColor=none;fillColor=none;" vertex="1" parent="1">
          <mxGeometry x="1550" y="1390" width="180" height="30" as="geometry" />
        </mxCell>
        <mxCell id="inVpBBwWjXf6P8Z2ml2F-45" style="edgeStyle=none;shape=link;rounded=0;orthogonalLoop=1;jettySize=auto;html=1;" edge="1" parent="1" source="inVpBBwWjXf6P8Z2ml2F-47">
          <mxGeometry relative="1" as="geometry">
            <mxPoint x="2758.729529747596" y="1615" as="targetPoint" />
          </mxGeometry>
        </mxCell>
        <mxCell id="inVpBBwWjXf6P8Z2ml2F-46" style="edgeStyle=none;shape=link;rounded=0;orthogonalLoop=1;jettySize=auto;html=1;" edge="1" parent="1" source="inVpBBwWjXf6P8Z2ml2F-47">
          <mxGeometry relative="1" as="geometry">
            <mxPoint x="1055.0000000000005" y="1615" as="targetPoint" />
          </mxGeometry>
        </mxCell>
        <mxCell id="inVpBBwWjXf6P8Z2ml2F-47" value="Optional: Set Diagnosis" style="html=1;whiteSpace=wrap;fontStyle=1" vertex="1" parent="1">
          <mxGeometry x="1795" y="1600" width="180" height="30" as="geometry" />
        </mxCell>
        <mxCell id="inVpBBwWjXf6P8Z2ml2F-48" value="&lt;b&gt;opt&lt;/b&gt;" style="shape=umlFrame;whiteSpace=wrap;html=1;pointerEvents=0;" vertex="1" parent="1">
          <mxGeometry x="1490" y="1660" width="1105" height="250" as="geometry" />
        </mxCell>
        <mxCell id="inVpBBwWjXf6P8Z2ml2F-49" value="&lt;b&gt;[ if doctor selects an appointment and wants to submit a diagnosis ]&lt;/b&gt;" style="text;html=1;align=center;verticalAlign=middle;resizable=0;points=[];autosize=1;strokeColor=none;fillColor=none;" vertex="1" parent="1">
          <mxGeometry x="1785" y="1660" width="410" height="30" as="geometry" />
        </mxCell>
        <mxCell id="inVpBBwWjXf6P8Z2ml2F-57" value="1. getAppointmentsByStatus(doctorID, status)" style="html=1;verticalAlign=bottom;endArrow=block;edgeStyle=elbowEdgeStyle;elbow=vertical;curved=0;rounded=0;" edge="1" parent="1" target="inVpBBwWjXf6P8Z2ml2F-71">
          <mxGeometry x="0.6358" relative="1" as="geometry">
            <mxPoint x="1055" y="1720" as="sourcePoint" />
            <Array as="points" />
            <mxPoint x="2155" y="1720" as="targetPoint" />
            <mxPoint as="offset" />
          </mxGeometry>
        </mxCell>
        <mxCell id="inVpBBwWjXf6P8Z2ml2F-59" value="success" style="html=1;verticalAlign=bottom;endArrow=block;edgeStyle=elbowEdgeStyle;elbow=horizontal;curved=0;rounded=0;exitX=1;exitY=0;exitDx=0;exitDy=5;exitPerimeter=0;" edge="1" parent="1">
          <mxGeometry x="0.1981" y="-30" relative="1" as="geometry">
            <mxPoint x="2010" y="1075.3599999999997" as="sourcePoint" />
            <Array as="points">
              <mxPoint x="2040" y="1090.1799999999998" />
            </Array>
            <mxPoint x="2010" y="1090.1799999999998" as="targetPoint" />
            <mxPoint x="30" y="30" as="offset" />
          </mxGeometry>
        </mxCell>
        <mxCell id="inVpBBwWjXf6P8Z2ml2F-60" value="Endpoints from the actual code&lt;div&gt;&lt;br&gt;&lt;/div&gt;&lt;div&gt;Endpoints -&amp;gt; Controllers -&amp;gt; Services&lt;br&gt;&lt;div&gt;&lt;br&gt;&lt;/div&gt;&lt;div&gt;Used Java for the back-end (Active JDBC)&lt;/div&gt;&lt;/div&gt;" style="shape=note;size=20;whiteSpace=wrap;html=1;" vertex="1" parent="1">
          <mxGeometry x="1040" y="470" width="280" height="90" as="geometry" />
        </mxCell>
        <mxCell id="inVpBBwWjXf6P8Z2ml2F-62" value=":/set-availability" style="html=1;whiteSpace=wrap;fontStyle=1" vertex="1" parent="1">
          <mxGeometry x="1950" y="2010" width="110" height="30" as="geometry" />
        </mxCell>
        <mxCell id="inVpBBwWjXf6P8Z2ml2F-63" value=":/doctor-get-appointments-by-status" style="html=1;whiteSpace=wrap;fontStyle=1" vertex="1" parent="1">
          <mxGeometry x="2067.5" y="2010" width="215" height="30" as="geometry" />
        </mxCell>
        <mxCell id="inVpBBwWjXf6P8Z2ml2F-64" value=":/get-my-ratings" style="html=1;whiteSpace=wrap;fontStyle=1" vertex="1" parent="1">
          <mxGeometry x="1540" y="2010" width="110" height="30" as="geometry" />
        </mxCell>
        <mxCell id="inVpBBwWjXf6P8Z2ml2F-65" value=":/set-diagnosis" style="html=1;whiteSpace=wrap;fontStyle=1" vertex="1" parent="1">
          <mxGeometry x="2455" y="2010" width="120" height="30" as="geometry" />
        </mxCell>
        <mxCell id="inVpBBwWjXf6P8Z2ml2F-66" value=":/login" style="html=1;whiteSpace=wrap;fontStyle=1" vertex="1" parent="1">
          <mxGeometry x="1260" y="2010" width="110" height="30" as="geometry" />
        </mxCell>
        <mxCell id="inVpBBwWjXf6P8Z2ml2F-67" style="edgeStyle=none;shape=link;rounded=0;orthogonalLoop=1;jettySize=auto;html=1;curved=0;exitX=1;exitY=1;exitDx=0;exitDy=-5;exitPerimeter=0;" edge="1" parent="1">
          <mxGeometry relative="1" as="geometry">
            <mxPoint x="1775" y="2225" as="sourcePoint" />
            <mxPoint x="1775" y="2225" as="targetPoint" />
          </mxGeometry>
        </mxCell>
        <mxCell id="inVpBBwWjXf6P8Z2ml2F-69" style="edgeStyle=none;shape=link;rounded=0;orthogonalLoop=1;jettySize=auto;html=1;exitX=0.5;exitY=0;exitDx=0;exitDy=0;" edge="1" parent="1" source="inVpBBwWjXf6P8Z2ml2F-6" target="inVpBBwWjXf6P8Z2ml2F-6">
          <mxGeometry relative="1" as="geometry" />
        </mxCell>
        <mxCell id="inVpBBwWjXf6P8Z2ml2F-71" value="" style="html=1;points=[[0,0,0,0,5],[0,1,0,0,-5],[1,0,0,0,5],[1,1,0,0,-5]];perimeter=orthogonalPerimeter;outlineConnect=0;targetShapes=umlLifeline;portConstraint=eastwest;newEdgeStyle={&quot;curved&quot;:0,&quot;rounded&quot;:0};" vertex="1" parent="1">
          <mxGeometry x="2170" y="1720" width="10" height="70" as="geometry" />
        </mxCell>
        <mxCell id="inVpBBwWjXf6P8Z2ml2F-72" value="" style="endArrow=none;html=1;edgeStyle=orthogonalEdgeStyle;rounded=0;dashed=1;entryX=0.5;entryY=0;entryDx=0;entryDy=0;exitX=0.5;exitY=1;exitDx=0;exitDy=0;" edge="1" parent="1" target="inVpBBwWjXf6P8Z2ml2F-73" source="inVpBBwWjXf6P8Z2ml2F-6">
          <mxGeometry relative="1" as="geometry">
            <mxPoint x="2170" y="670" as="sourcePoint" />
            <mxPoint x="2152.55" y="2100" as="targetPoint" />
            <Array as="points">
              <mxPoint x="2170" y="668" />
            </Array>
          </mxGeometry>
        </mxCell>
        <mxCell id="inVpBBwWjXf6P8Z2ml2F-73" value="" style="html=1;points=[[0,0,0,0,5],[0,1,0,0,-5],[1,0,0,0,5],[1,1,0,0,-5]];perimeter=orthogonalPerimeter;outlineConnect=0;targetShapes=umlLifeline;portConstraint=eastwest;newEdgeStyle={&quot;curved&quot;:0,&quot;rounded&quot;:0};" vertex="1" parent="1">
          <mxGeometry x="2165" y="1210.27" width="10" height="59.73" as="geometry" />
        </mxCell>
        <mxCell id="inVpBBwWjXf6P8Z2ml2F-74" style="edgeStyle=none;shape=link;rounded=0;orthogonalLoop=1;jettySize=auto;html=1;" edge="1" parent="1" source="inVpBBwWjXf6P8Z2ml2F-22" target="inVpBBwWjXf6P8Z2ml2F-8">
          <mxGeometry relative="1" as="geometry">
            <mxPoint x="1350" y="855" as="targetPoint" />
          </mxGeometry>
        </mxCell>
        <mxCell id="inVpBBwWjXf6P8Z2ml2F-75" value="1. login(email,&lt;span style=&quot;background-color: light-dark(#ffffff, var(--ge-dark-color, #121212)); color: light-dark(rgb(0, 0, 0), rgb(255, 255, 255));&quot;&gt;&amp;nbsp;password)&lt;/span&gt;" style="html=1;verticalAlign=bottom;endArrow=block;edgeStyle=elbowEdgeStyle;elbow=horizontal;curved=0;rounded=0;" edge="1" parent="1">
          <mxGeometry x="-0.0032" relative="1" as="geometry">
            <mxPoint x="1050" y="900" as="sourcePoint" />
            <Array as="points" />
            <mxPoint x="1310" y="900" as="targetPoint" />
            <mxPoint as="offset" />
          </mxGeometry>
        </mxCell>
        <mxCell id="inVpBBwWjXf6P8Z2ml2F-76" value="" style="html=1;points=[[0,0,0,0,5],[0,1,0,0,-5],[1,0,0,0,5],[1,1,0,0,-5]];perimeter=orthogonalPerimeter;outlineConnect=0;targetShapes=umlLifeline;portConstraint=eastwest;newEdgeStyle={&quot;curved&quot;:0,&quot;rounded&quot;:0};" vertex="1" parent="1">
          <mxGeometry x="1310" y="900" width="10" height="30" as="geometry" />
        </mxCell>
        <mxCell id="inVpBBwWjXf6P8Z2ml2F-77" value="2. loginConfirmation - message" style="html=1;verticalAlign=bottom;endArrow=block;edgeStyle=elbowEdgeStyle;elbow=horizontal;curved=0;rounded=0;" edge="1" parent="1">
          <mxGeometry x="0.4937" relative="1" as="geometry">
            <mxPoint x="1060" y="930" as="sourcePoint" />
            <Array as="points">
              <mxPoint x="1310" y="930" />
            </Array>
            <mxPoint x="1050" y="930" as="targetPoint" />
            <mxPoint as="offset" />
          </mxGeometry>
        </mxCell>
        <mxCell id="inVpBBwWjXf6P8Z2ml2F-318" value="2. list of appointments" style="html=1;verticalAlign=bottom;endArrow=block;edgeStyle=elbowEdgeStyle;elbow=horizontal;curved=0;rounded=0;" edge="1" parent="1">
          <mxGeometry x="-0.2215" relative="1" as="geometry">
            <mxPoint x="1800" y="1740" as="sourcePoint" />
            <Array as="points">
              <mxPoint x="2170" y="1740" />
            </Array>
            <mxPoint x="1050.0000000000005" y="1740" as="targetPoint" />
            <mxPoint as="offset" />
          </mxGeometry>
        </mxCell>
        <mxCell id="inVpBBwWjXf6P8Z2ml2F-319" value=":/view-appointment-details" style="html=1;whiteSpace=wrap;fontStyle=1" vertex="1" parent="1">
          <mxGeometry x="2270" y="637.88" width="160" height="30" as="geometry" />
        </mxCell>
        <mxCell id="inVpBBwWjXf6P8Z2ml2F-324" value="" style="html=1;points=[[0,0,0,0,5],[0,1,0,0,-5],[1,0,0,0,5],[1,1,0,0,-5]];perimeter=orthogonalPerimeter;outlineConnect=0;targetShapes=umlLifeline;portConstraint=eastwest;newEdgeStyle={&quot;curved&quot;:0,&quot;rounded&quot;:0};" vertex="1" parent="1">
          <mxGeometry x="2510" y="1830" width="10" height="20" as="geometry" />
        </mxCell>
        <mxCell id="inVpBBwWjXf6P8Z2ml2F-50" value="5. setDiagnosis&amp;nbsp;&lt;div&gt;&lt;span style=&quot;background-color: light-dark(#ffffff, var(--ge-dark-color, #121212)); color: light-dark(rgb(0, 0, 0), rgb(255, 255, 255));&quot;&gt;(appointmentId,&amp;nbsp;&lt;/span&gt;&lt;/div&gt;&lt;div&gt;&lt;span style=&quot;background-color: light-dark(#ffffff, var(--ge-dark-color, #121212)); color: light-dark(rgb(0, 0, 0), rgb(255, 255, 255));&quot;&gt;disease, details)&lt;/span&gt;&lt;/div&gt;" style="html=1;verticalAlign=bottom;endArrow=block;edgeStyle=elbowEdgeStyle;elbow=vertical;curved=0;rounded=0;" edge="1" parent="1">
          <mxGeometry x="0.0968" relative="1" as="geometry">
            <mxPoint x="2360.0035742187497" y="1830" as="sourcePoint" />
            <Array as="points" />
            <mxPoint x="2510" y="1830" as="targetPoint" />
            <mxPoint as="offset" />
          </mxGeometry>
        </mxCell>
        <mxCell id="inVpBBwWjXf6P8Z2ml2F-326" value="6. success" style="html=1;verticalAlign=bottom;endArrow=block;edgeStyle=elbowEdgeStyle;elbow=horizontal;curved=0;rounded=0;exitX=1;exitY=0;exitDx=0;exitDy=5;exitPerimeter=0;" edge="1" parent="1">
          <mxGeometry x="0.1981" y="-40" relative="1" as="geometry">
            <mxPoint x="2520" y="1835.18" as="sourcePoint" />
            <Array as="points">
              <mxPoint x="2550" y="1850.0000000000002" />
            </Array>
            <mxPoint x="2520" y="1850.0000000000002" as="targetPoint" />
            <mxPoint x="40" y="40" as="offset" />
          </mxGeometry>
        </mxCell>
        <mxCell id="inVpBBwWjXf6P8Z2ml2F-337" value="" style="html=1;points=[[0,0,0,0,5],[0,1,0,0,-5],[1,0,0,0,5],[1,1,0,0,-5]];perimeter=orthogonalPerimeter;outlineConnect=0;targetShapes=umlLifeline;portConstraint=eastwest;newEdgeStyle={&quot;curved&quot;:0,&quot;rounded&quot;:0};" vertex="1" parent="1">
          <mxGeometry x="2345" y="1480" width="10" height="50" as="geometry" />
        </mxCell>
        <mxCell id="inVpBBwWjXf6P8Z2ml2F-338" value="1. getAppointmentsByStatus(doctorID, status)" style="html=1;verticalAlign=bottom;endArrow=block;edgeStyle=elbowEdgeStyle;elbow=vertical;curved=0;rounded=0;" edge="1" parent="1" target="inVpBBwWjXf6P8Z2ml2F-339">
          <mxGeometry x="0.6358" relative="1" as="geometry">
            <mxPoint x="1050" y="1430" as="sourcePoint" />
            <Array as="points" />
            <mxPoint x="2150" y="1430" as="targetPoint" />
            <mxPoint as="offset" />
          </mxGeometry>
        </mxCell>
        <mxCell id="inVpBBwWjXf6P8Z2ml2F-339" value="" style="html=1;points=[[0,0,0,0,5],[0,1,0,0,-5],[1,0,0,0,5],[1,1,0,0,-5]];perimeter=orthogonalPerimeter;outlineConnect=0;targetShapes=umlLifeline;portConstraint=eastwest;newEdgeStyle={&quot;curved&quot;:0,&quot;rounded&quot;:0};" vertex="1" parent="1">
          <mxGeometry x="2165" y="1430" width="10" height="50" as="geometry" />
        </mxCell>
        <mxCell id="inVpBBwWjXf6P8Z2ml2F-340" value="2. list of appointments" style="html=1;verticalAlign=bottom;endArrow=block;edgeStyle=elbowEdgeStyle;elbow=horizontal;curved=0;rounded=0;" edge="1" parent="1">
          <mxGeometry x="-0.2215" relative="1" as="geometry">
            <mxPoint x="1795" y="1450" as="sourcePoint" />
            <Array as="points">
              <mxPoint x="2165" y="1450" />
            </Array>
            <mxPoint x="1045.0000000000005" y="1450" as="targetPoint" />
            <mxPoint as="offset" />
          </mxGeometry>
        </mxCell>
        <mxCell id="inVpBBwWjXf6P8Z2ml2F-346" value=":/cancel-appointment" style="html=1;whiteSpace=wrap;fontStyle=1" vertex="1" parent="1">
          <mxGeometry x="2590" y="637.88" width="180" height="30" as="geometry" />
        </mxCell>
        <mxCell id="inVpBBwWjXf6P8Z2ml2F-347" value="" style="endArrow=none;html=1;edgeStyle=orthogonalEdgeStyle;rounded=0;exitX=0.5;exitY=1;exitDx=0;exitDy=0;dashed=1;entryX=0.5;entryY=0;entryDx=0;entryDy=0;" edge="1" parent="1" target="inVpBBwWjXf6P8Z2ml2F-362">
          <mxGeometry relative="1" as="geometry">
            <mxPoint x="2674.5" y="667.88" as="sourcePoint" />
            <mxPoint x="2676" y="2090" as="targetPoint" />
            <Array as="points">
              <mxPoint x="2676" y="668" />
              <mxPoint x="2676" y="2010" />
            </Array>
          </mxGeometry>
        </mxCell>
        <mxCell id="inVpBBwWjXf6P8Z2ml2F-349" value="4. appointment details" style="html=1;verticalAlign=bottom;endArrow=block;edgeStyle=elbowEdgeStyle;elbow=horizontal;curved=0;rounded=0;" edge="1" parent="1" target="inVpBBwWjXf6P8Z2ml2F-8">
          <mxGeometry x="0.0805" relative="1" as="geometry">
            <mxPoint x="1980" y="1809.6" as="sourcePoint" />
            <Array as="points">
              <mxPoint x="2350" y="1809.6" />
            </Array>
            <mxPoint x="1055" y="1809.6499999999999" as="targetPoint" />
            <mxPoint as="offset" />
          </mxGeometry>
        </mxCell>
        <mxCell id="inVpBBwWjXf6P8Z2ml2F-350" value="4. appointment details" style="html=1;verticalAlign=bottom;endArrow=block;edgeStyle=elbowEdgeStyle;elbow=horizontal;curved=0;rounded=0;" edge="1" parent="1">
          <mxGeometry x="0.0805" relative="1" as="geometry">
            <mxPoint x="1975" y="1504.47" as="sourcePoint" />
            <Array as="points">
              <mxPoint x="2345" y="1504.47" />
            </Array>
            <mxPoint x="1050" y="1504.52" as="targetPoint" />
            <mxPoint as="offset" />
          </mxGeometry>
        </mxCell>
        <mxCell id="inVpBBwWjXf6P8Z2ml2F-352" value="5. cancelAppointment(appointmentId)" style="html=1;verticalAlign=bottom;endArrow=block;edgeStyle=elbowEdgeStyle;elbow=vertical;curved=0;rounded=0;" edge="1" parent="1" source="inVpBBwWjXf6P8Z2ml2F-337">
          <mxGeometry x="0.1891" relative="1" as="geometry">
            <mxPoint x="2360" y="1530" as="sourcePoint" />
            <Array as="points" />
            <mxPoint x="2670" y="1530.69" as="targetPoint" />
            <mxPoint as="offset" />
          </mxGeometry>
        </mxCell>
        <mxCell id="inVpBBwWjXf6P8Z2ml2F-353" value="" style="html=1;points=[[0,0,0,0,5],[0,1,0,0,-5],[1,0,0,0,5],[1,1,0,0,-5]];perimeter=orthogonalPerimeter;outlineConnect=0;targetShapes=umlLifeline;portConstraint=eastwest;newEdgeStyle={&quot;curved&quot;:0,&quot;rounded&quot;:0};" vertex="1" parent="1">
          <mxGeometry x="2670" y="1530" width="10" height="20" as="geometry" />
        </mxCell>
        <mxCell id="inVpBBwWjXf6P8Z2ml2F-354" value="success" style="html=1;verticalAlign=bottom;endArrow=block;edgeStyle=elbowEdgeStyle;elbow=horizontal;curved=0;rounded=0;exitX=1;exitY=0;exitDx=0;exitDy=5;exitPerimeter=0;" edge="1" parent="1">
          <mxGeometry x="0.1981" y="-30" relative="1" as="geometry">
            <mxPoint x="2680" y="1535.18" as="sourcePoint" />
            <Array as="points">
              <mxPoint x="2710" y="1550.0000000000002" />
            </Array>
            <mxPoint x="2680" y="1550.0000000000002" as="targetPoint" />
            <mxPoint x="30" y="30" as="offset" />
          </mxGeometry>
        </mxCell>
        <mxCell id="inVpBBwWjXf6P8Z2ml2F-358" value=":/view-appointment-details" style="html=1;whiteSpace=wrap;fontStyle=1" vertex="1" parent="1">
          <mxGeometry x="2290" y="2010" width="160" height="30" as="geometry" />
        </mxCell>
        <mxCell id="inVpBBwWjXf6P8Z2ml2F-362" value=":/cancel-appointment" style="html=1;whiteSpace=wrap;fontStyle=1" vertex="1" parent="1">
          <mxGeometry x="2585" y="2010" width="180" height="30" as="geometry" />
        </mxCell>
        <mxCell id="inVpBBwWjXf6P8Z2ml2F-365" value="" style="endArrow=none;html=1;edgeStyle=orthogonalEdgeStyle;rounded=0;exitX=0.5;exitY=1;exitDx=0;exitDy=0;dashed=1;entryX=0.5;entryY=0;entryDx=0;entryDy=0;" edge="1" parent="1" target="inVpBBwWjXf6P8Z2ml2F-64">
          <mxGeometry relative="1" as="geometry">
            <mxPoint x="1593" y="667.8800000000001" as="sourcePoint" />
            <mxPoint x="1600" y="2100.0000000000005" as="targetPoint" />
            <Array as="points">
              <mxPoint x="1600" y="668" />
            </Array>
          </mxGeometry>
        </mxCell>
        <mxCell id="inVpBBwWjXf6P8Z2ml2F-366" value="" style="endArrow=none;html=1;edgeStyle=orthogonalEdgeStyle;rounded=0;exitX=0.5;exitY=1;exitDx=0;exitDy=0;dashed=1;entryX=0.378;entryY=0.095;entryDx=0;entryDy=0;entryPerimeter=0;" edge="1" parent="1" target="inVpBBwWjXf6P8Z2ml2F-450" source="inVpBBwWjXf6P8Z2ml2F-503">
          <mxGeometry relative="1" as="geometry">
            <mxPoint x="2360" y="2327.88" as="sourcePoint" />
            <mxPoint x="2361" y="3890" as="targetPoint" />
            <Array as="points">
              <mxPoint x="2360" y="3770" />
              <mxPoint x="2360" y="3770" />
            </Array>
          </mxGeometry>
        </mxCell>
        <mxCell id="inVpBBwWjXf6P8Z2ml2F-368" value="" style="endArrow=none;html=1;edgeStyle=orthogonalEdgeStyle;rounded=0;dashed=1;entryX=0.25;entryY=0;entryDx=0;entryDy=0;exitX=0.5;exitY=1;exitDx=0;exitDy=0;" edge="1" parent="1" source="inVpBBwWjXf6P8Z2ml2F-495" target="inVpBBwWjXf6P8Z2ml2F-417">
          <mxGeometry relative="1" as="geometry">
            <mxPoint x="2180" y="2730" as="sourcePoint" />
            <mxPoint x="2162.55" y="3680" as="targetPoint" />
            <Array as="points">
              <mxPoint x="2180" y="3900" />
              <mxPoint x="2138" y="3900" />
            </Array>
          </mxGeometry>
        </mxCell>
        <mxCell id="inVpBBwWjXf6P8Z2ml2F-369" value="" style="endArrow=none;html=1;edgeStyle=orthogonalEdgeStyle;rounded=0;exitX=0.5;exitY=0;exitDx=0;exitDy=0;dashed=1;entryX=0.5;entryY=0;entryDx=0;entryDy=0;" edge="1" parent="1" source="inVpBBwWjXf6P8Z2ml2F-419" target="inVpBBwWjXf6P8Z2ml2F-419">
          <mxGeometry relative="1" as="geometry">
            <mxPoint x="2530" y="3920" as="sourcePoint" />
            <mxPoint x="2529.37" y="4217.88" as="targetPoint" />
            <Array as="points" />
          </mxGeometry>
        </mxCell>
        <mxCell id="inVpBBwWjXf6P8Z2ml2F-371" value=":Patient" style="shape=umlActor;verticalLabelPosition=bottom;verticalAlign=top;html=1;" vertex="1" parent="1">
          <mxGeometry x="1040" y="2357.88" width="30" height="60" as="geometry" />
        </mxCell>
        <mxCell id="inVpBBwWjXf6P8Z2ml2F-372" value=":/get-doctor" style="html=1;whiteSpace=wrap;fontStyle=1" vertex="1" parent="1">
          <mxGeometry x="1960" y="2387.88" width="110" height="30" as="geometry" />
        </mxCell>
        <mxCell id="inVpBBwWjXf6P8Z2ml2F-373" value=":/doctor-ratings" style="html=1;whiteSpace=wrap;fontStyle=1" vertex="1" parent="1">
          <mxGeometry x="2130" y="2387.88" width="100" height="30" as="geometry" />
        </mxCell>
        <mxCell id="inVpBBwWjXf6P8Z2ml2F-374" value="" style="endArrow=none;html=1;edgeStyle=orthogonalEdgeStyle;rounded=0;dashed=1;" edge="1" parent="1">
          <mxGeometry relative="1" as="geometry">
            <mxPoint x="1055" y="3930" as="sourcePoint" />
            <mxPoint x="1054.9099999999999" y="2467.88" as="targetPoint" />
            <Array as="points">
              <mxPoint x="1054.9099999999999" y="2437.88" />
              <mxPoint x="1054.9099999999999" y="2437.88" />
            </Array>
          </mxGeometry>
        </mxCell>
        <mxCell id="inVpBBwWjXf6P8Z2ml2F-375" value="" style="html=1;points=[[0,0,0,0,5],[0,1,0,0,-5],[1,0,0,0,5],[1,1,0,0,-5]];perimeter=orthogonalPerimeter;outlineConnect=0;targetShapes=umlLifeline;portConstraint=eastwest;newEdgeStyle={&quot;curved&quot;:0,&quot;rounded&quot;:0};" vertex="1" parent="1">
          <mxGeometry x="1050" y="2457.88" width="10" height="1362.12" as="geometry" />
        </mxCell>
        <mxCell id="inVpBBwWjXf6P8Z2ml2F-376" value=":/find-doctors" style="html=1;whiteSpace=wrap;fontStyle=1" vertex="1" parent="1">
          <mxGeometry x="1720" y="2387.88" width="110" height="30" as="geometry" />
        </mxCell>
        <mxCell id="inVpBBwWjXf6P8Z2ml2F-377" value=":/set-appointment" style="html=1;whiteSpace=wrap;fontStyle=1" vertex="1" parent="1">
          <mxGeometry x="2460" y="2387.88" width="120" height="30" as="geometry" />
        </mxCell>
        <mxCell id="inVpBBwWjXf6P8Z2ml2F-378" value=":/login" style="html=1;whiteSpace=wrap;fontStyle=1" vertex="1" parent="1">
          <mxGeometry x="1225" y="2387.88" width="200" height="30" as="geometry" />
        </mxCell>
        <mxCell id="inVpBBwWjXf6P8Z2ml2F-379" value="" style="endArrow=none;html=1;edgeStyle=orthogonalEdgeStyle;rounded=0;exitX=0.5;exitY=1;exitDx=0;exitDy=0;dashed=1;" edge="1" parent="1" source="inVpBBwWjXf6P8Z2ml2F-385">
          <mxGeometry relative="1" as="geometry">
            <mxPoint x="1774.23" y="2470" as="sourcePoint" />
            <mxPoint x="1325" y="3880" as="targetPoint" />
            <Array as="points">
              <mxPoint x="1325" y="3500" />
            </Array>
          </mxGeometry>
        </mxCell>
        <mxCell id="inVpBBwWjXf6P8Z2ml2F-380" style="edgeStyle=none;shape=link;rounded=0;orthogonalLoop=1;jettySize=auto;html=1;" edge="1" parent="1" source="inVpBBwWjXf6P8Z2ml2F-382">
          <mxGeometry relative="1" as="geometry">
            <mxPoint x="3250" y="2475" as="targetPoint" />
          </mxGeometry>
        </mxCell>
        <mxCell id="inVpBBwWjXf6P8Z2ml2F-381" style="edgeStyle=none;shape=link;rounded=0;orthogonalLoop=1;jettySize=auto;html=1;" edge="1" parent="1" source="inVpBBwWjXf6P8Z2ml2F-382" target="inVpBBwWjXf6P8Z2ml2F-375">
          <mxGeometry relative="1" as="geometry" />
        </mxCell>
        <mxCell id="inVpBBwWjXf6P8Z2ml2F-382" value="Patient Registration" style="html=1;whiteSpace=wrap;fontStyle=1" vertex="1" parent="1">
          <mxGeometry x="1805" y="2460" width="180" height="30" as="geometry" />
        </mxCell>
        <mxCell id="inVpBBwWjXf6P8Z2ml2F-383" value="1. register(AMKA, fullName, username,&amp;nbsp;&lt;div&gt;email, phone, password)&lt;/div&gt;" style="html=1;verticalAlign=bottom;endArrow=block;edgeStyle=elbowEdgeStyle;elbow=horizontal;curved=0;rounded=0;" edge="1" parent="1">
          <mxGeometry relative="1" as="geometry">
            <mxPoint x="1060" y="2530" as="sourcePoint" />
            <Array as="points" />
            <mxPoint x="1320" y="2530" as="targetPoint" />
            <mxPoint as="offset" />
          </mxGeometry>
        </mxCell>
        <mxCell id="inVpBBwWjXf6P8Z2ml2F-384" value="" style="endArrow=none;html=1;edgeStyle=orthogonalEdgeStyle;rounded=0;dashed=1;exitX=0.5;exitY=1;exitDx=0;exitDy=0;" edge="1" parent="1" source="inVpBBwWjXf6P8Z2ml2F-378" target="inVpBBwWjXf6P8Z2ml2F-385">
          <mxGeometry relative="1" as="geometry">
            <mxPoint x="1325" y="2450" as="sourcePoint" />
            <mxPoint x="1484" y="3080" as="targetPoint" />
            <Array as="points">
              <mxPoint x="1325" y="2500" />
              <mxPoint x="1325" y="2500" />
            </Array>
          </mxGeometry>
        </mxCell>
        <mxCell id="inVpBBwWjXf6P8Z2ml2F-385" value="" style="html=1;points=[[0,0,0,0,5],[0,1,0,0,-5],[1,0,0,0,5],[1,1,0,0,-5]];perimeter=orthogonalPerimeter;outlineConnect=0;targetShapes=umlLifeline;portConstraint=eastwest;newEdgeStyle={&quot;curved&quot;:0,&quot;rounded&quot;:0};" vertex="1" parent="1">
          <mxGeometry x="1320" y="2530" width="10" height="30" as="geometry" />
        </mxCell>
        <mxCell id="inVpBBwWjXf6P8Z2ml2F-386" value="2. registrationConfirmation - message" style="html=1;verticalAlign=bottom;endArrow=block;edgeStyle=elbowEdgeStyle;elbow=horizontal;curved=0;rounded=0;" edge="1" parent="1">
          <mxGeometry x="0.4937" relative="1" as="geometry">
            <mxPoint x="1070" y="2560" as="sourcePoint" />
            <Array as="points">
              <mxPoint x="1320" y="2560" />
            </Array>
            <mxPoint x="1060" y="2560" as="targetPoint" />
            <mxPoint as="offset" />
          </mxGeometry>
        </mxCell>
        <mxCell id="inVpBBwWjXf6P8Z2ml2F-387" style="edgeStyle=none;shape=link;rounded=0;orthogonalLoop=1;jettySize=auto;html=1;" edge="1" parent="1" source="inVpBBwWjXf6P8Z2ml2F-388">
          <mxGeometry relative="1" as="geometry">
            <mxPoint x="3250" y="2605" as="targetPoint" />
          </mxGeometry>
        </mxCell>
        <mxCell id="inVpBBwWjXf6P8Z2ml2F-388" value="Patient Login" style="html=1;whiteSpace=wrap;fontStyle=1" vertex="1" parent="1">
          <mxGeometry x="1805" y="2590" width="180" height="30" as="geometry" />
        </mxCell>
        <mxCell id="inVpBBwWjXf6P8Z2ml2F-394" style="edgeStyle=none;shape=link;rounded=0;orthogonalLoop=1;jettySize=auto;html=1;" edge="1" parent="1" source="inVpBBwWjXf6P8Z2ml2F-396">
          <mxGeometry relative="1" as="geometry">
            <mxPoint x="3250" y="2735" as="targetPoint" />
          </mxGeometry>
        </mxCell>
        <mxCell id="inVpBBwWjXf6P8Z2ml2F-395" style="edgeStyle=none;shape=link;rounded=0;orthogonalLoop=1;jettySize=auto;html=1;" edge="1" parent="1" source="inVpBBwWjXf6P8Z2ml2F-396">
          <mxGeometry relative="1" as="geometry">
            <mxPoint x="1060.0000000000005" y="2735" as="targetPoint" />
          </mxGeometry>
        </mxCell>
        <mxCell id="inVpBBwWjXf6P8Z2ml2F-396" value="View Appointment Details" style="html=1;whiteSpace=wrap;fontStyle=1" vertex="1" parent="1">
          <mxGeometry x="1805" y="2720" width="180" height="30" as="geometry" />
        </mxCell>
        <mxCell id="inVpBBwWjXf6P8Z2ml2F-397" value="1. getPatientAppointmentsByStatus(doctorID, status)" style="html=1;verticalAlign=bottom;endArrow=block;edgeStyle=elbowEdgeStyle;elbow=vertical;curved=0;rounded=0;exitX=1;exitY=0.445;exitDx=0;exitDy=0;exitPerimeter=0;" edge="1" parent="1">
          <mxGeometry x="0.179" relative="1" as="geometry">
            <mxPoint x="1060.0000000000005" y="2789.7299999999996" as="sourcePoint" />
            <Array as="points" />
            <mxPoint x="1620" y="2790" as="targetPoint" />
            <mxPoint as="offset" />
          </mxGeometry>
        </mxCell>
        <mxCell id="inVpBBwWjXf6P8Z2ml2F-398" value="2. list of appointments" style="html=1;verticalAlign=bottom;endArrow=block;edgeStyle=elbowEdgeStyle;elbow=horizontal;curved=0;rounded=0;" edge="1" parent="1">
          <mxGeometry x="-0.1228" relative="1" as="geometry">
            <mxPoint x="1630" y="2830" as="sourcePoint" />
            <Array as="points">
              <mxPoint x="1630" y="2830" />
            </Array>
            <mxPoint x="1060.0000000000005" y="2830" as="targetPoint" />
            <mxPoint as="offset" />
          </mxGeometry>
        </mxCell>
        <mxCell id="inVpBBwWjXf6P8Z2ml2F-399" style="edgeStyle=none;shape=link;rounded=0;orthogonalLoop=1;jettySize=auto;html=1;" edge="1" parent="1" source="inVpBBwWjXf6P8Z2ml2F-401">
          <mxGeometry relative="1" as="geometry">
            <mxPoint x="3230" y="3530" as="targetPoint" />
          </mxGeometry>
        </mxCell>
        <mxCell id="inVpBBwWjXf6P8Z2ml2F-400" style="edgeStyle=none;shape=link;rounded=0;orthogonalLoop=1;jettySize=auto;html=1;" edge="1" parent="1" source="inVpBBwWjXf6P8Z2ml2F-401">
          <mxGeometry relative="1" as="geometry">
            <mxPoint x="1065.0000000000005" y="3525" as="targetPoint" />
          </mxGeometry>
        </mxCell>
        <mxCell id="inVpBBwWjXf6P8Z2ml2F-401" value="Optional: Cancel Appointment" style="html=1;whiteSpace=wrap;fontStyle=1" vertex="1" parent="1">
          <mxGeometry x="1805" y="3510" width="180" height="30" as="geometry" />
        </mxCell>
        <mxCell id="inVpBBwWjXf6P8Z2ml2F-415" value="Endpoints from the actual code&lt;div&gt;&lt;br&gt;&lt;/div&gt;&lt;div&gt;Endpoints -&amp;gt; Controllers -&amp;gt; Services&lt;br&gt;&lt;div&gt;&lt;br&gt;&lt;/div&gt;&lt;div&gt;Used Java for the back-end (Active JDBC)&lt;/div&gt;&lt;/div&gt;" style="shape=note;size=20;whiteSpace=wrap;html=1;" vertex="1" parent="1">
          <mxGeometry x="1050" y="2220" width="280" height="90" as="geometry" />
        </mxCell>
        <mxCell id="inVpBBwWjXf6P8Z2ml2F-416" value=":/get-doctor" style="html=1;whiteSpace=wrap;fontStyle=1" vertex="1" parent="1">
          <mxGeometry x="1957.5" y="3880" width="110" height="30" as="geometry" />
        </mxCell>
        <mxCell id="inVpBBwWjXf6P8Z2ml2F-417" value=":/doctor-get-appointments-by-status" style="html=1;whiteSpace=wrap;fontStyle=1" vertex="1" parent="1">
          <mxGeometry x="2075" y="3880" width="210" height="30" as="geometry" />
        </mxCell>
        <mxCell id="inVpBBwWjXf6P8Z2ml2F-418" value=":/find-doctors" style="html=1;whiteSpace=wrap;fontStyle=1" vertex="1" parent="1">
          <mxGeometry x="1710" y="3880" width="110" height="30" as="geometry" />
        </mxCell>
        <mxCell id="inVpBBwWjXf6P8Z2ml2F-419" value=":/set-appointment" style="html=1;whiteSpace=wrap;fontStyle=1" vertex="1" parent="1">
          <mxGeometry x="2465" y="3880" width="120" height="30" as="geometry" />
        </mxCell>
        <mxCell id="inVpBBwWjXf6P8Z2ml2F-420" value=":/login" style="html=1;whiteSpace=wrap;fontStyle=1" vertex="1" parent="1">
          <mxGeometry x="1270" y="3880" width="110" height="30" as="geometry" />
        </mxCell>
        <mxCell id="inVpBBwWjXf6P8Z2ml2F-421" style="edgeStyle=none;shape=link;rounded=0;orthogonalLoop=1;jettySize=auto;html=1;curved=0;exitX=1;exitY=1;exitDx=0;exitDy=-5;exitPerimeter=0;" edge="1" parent="1">
          <mxGeometry relative="1" as="geometry">
            <mxPoint x="1780" y="3965" as="sourcePoint" />
            <mxPoint x="1780" y="3965" as="targetPoint" />
          </mxGeometry>
        </mxCell>
        <mxCell id="inVpBBwWjXf6P8Z2ml2F-422" style="edgeStyle=none;shape=link;rounded=0;orthogonalLoop=1;jettySize=auto;html=1;exitX=0.5;exitY=0;exitDx=0;exitDy=0;" edge="1" parent="1" source="inVpBBwWjXf6P8Z2ml2F-373" target="inVpBBwWjXf6P8Z2ml2F-373">
          <mxGeometry relative="1" as="geometry" />
        </mxCell>
        <mxCell id="inVpBBwWjXf6P8Z2ml2F-426" style="edgeStyle=none;shape=link;rounded=0;orthogonalLoop=1;jettySize=auto;html=1;" edge="1" parent="1" source="inVpBBwWjXf6P8Z2ml2F-388" target="inVpBBwWjXf6P8Z2ml2F-375">
          <mxGeometry relative="1" as="geometry">
            <mxPoint x="1360" y="2605" as="targetPoint" />
          </mxGeometry>
        </mxCell>
        <mxCell id="inVpBBwWjXf6P8Z2ml2F-427" value="1. login(email,&lt;span style=&quot;background-color: light-dark(#ffffff, var(--ge-dark-color, #121212)); color: light-dark(rgb(0, 0, 0), rgb(255, 255, 255));&quot;&gt;&amp;nbsp;password)&lt;/span&gt;" style="html=1;verticalAlign=bottom;endArrow=block;edgeStyle=elbowEdgeStyle;elbow=vertical;curved=0;rounded=0;" edge="1" parent="1">
          <mxGeometry x="-0.0032" relative="1" as="geometry">
            <mxPoint x="1060" y="2650" as="sourcePoint" />
            <Array as="points" />
            <mxPoint x="1320" y="2650" as="targetPoint" />
            <mxPoint as="offset" />
          </mxGeometry>
        </mxCell>
        <mxCell id="inVpBBwWjXf6P8Z2ml2F-428" value="" style="html=1;points=[[0,0,0,0,5],[0,1,0,0,-5],[1,0,0,0,5],[1,1,0,0,-5]];perimeter=orthogonalPerimeter;outlineConnect=0;targetShapes=umlLifeline;portConstraint=eastwest;newEdgeStyle={&quot;curved&quot;:0,&quot;rounded&quot;:0};" vertex="1" parent="1">
          <mxGeometry x="1320" y="2650" width="10" height="30" as="geometry" />
        </mxCell>
        <mxCell id="inVpBBwWjXf6P8Z2ml2F-429" value="2. loginConfirmation - message" style="html=1;verticalAlign=bottom;endArrow=block;edgeStyle=elbowEdgeStyle;elbow=horizontal;curved=0;rounded=0;" edge="1" parent="1">
          <mxGeometry x="0.4937" relative="1" as="geometry">
            <mxPoint x="1070" y="2680" as="sourcePoint" />
            <Array as="points">
              <mxPoint x="1320" y="2680" />
            </Array>
            <mxPoint x="1060" y="2680" as="targetPoint" />
            <mxPoint as="offset" />
          </mxGeometry>
        </mxCell>
        <mxCell id="inVpBBwWjXf6P8Z2ml2F-432" value=":/doctor-availabilities" style="html=1;whiteSpace=wrap;fontStyle=1" vertex="1" parent="1">
          <mxGeometry x="2280" y="2387.88" width="160" height="30" as="geometry" />
        </mxCell>
        <mxCell id="inVpBBwWjXf6P8Z2ml2F-434" value="" style="endArrow=none;html=1;edgeStyle=orthogonalEdgeStyle;rounded=0;exitX=0.5;exitY=1;exitDx=0;exitDy=0;dashed=1;entryX=0.5;entryY=0;entryDx=0;entryDy=0;" edge="1" parent="1" target="inVpBBwWjXf6P8Z2ml2F-419">
          <mxGeometry relative="1" as="geometry">
            <mxPoint x="2525.0099999999993" y="2417.88" as="sourcePoint" />
            <mxPoint x="2526.119999999999" y="3915" as="targetPoint" />
            <Array as="points" />
          </mxGeometry>
        </mxCell>
        <mxCell id="inVpBBwWjXf6P8Z2ml2F-443" value=":/cancel-appointment" style="html=1;whiteSpace=wrap;fontStyle=1" vertex="1" parent="1">
          <mxGeometry x="2780" y="2387.88" width="140" height="30" as="geometry" />
        </mxCell>
        <mxCell id="inVpBBwWjXf6P8Z2ml2F-450" value=":/doctor-availabilities" style="html=1;whiteSpace=wrap;fontStyle=1" vertex="1" parent="1">
          <mxGeometry x="2300" y="3880" width="160" height="30" as="geometry" />
        </mxCell>
        <mxCell id="inVpBBwWjXf6P8Z2ml2F-451" value=":/view-appointment-details" style="html=1;whiteSpace=wrap;fontStyle=1" vertex="1" parent="1">
          <mxGeometry x="2600" y="3880" width="180" height="30" as="geometry" />
        </mxCell>
        <mxCell id="inVpBBwWjXf6P8Z2ml2F-452" value="" style="endArrow=none;html=1;edgeStyle=orthogonalEdgeStyle;rounded=0;exitX=0.5;exitY=1;exitDx=0;exitDy=0;dashed=1;" edge="1" parent="1" target="inVpBBwWjXf6P8Z2ml2F-418">
          <mxGeometry relative="1" as="geometry">
            <mxPoint x="1760" y="3250" as="sourcePoint" />
            <mxPoint x="1765" y="3840" as="targetPoint" />
            <Array as="points">
              <mxPoint x="1765" y="3251" />
            </Array>
          </mxGeometry>
        </mxCell>
        <mxCell id="inVpBBwWjXf6P8Z2ml2F-455" value=":/set-rating" style="html=1;whiteSpace=wrap;fontStyle=1" vertex="1" parent="1">
          <mxGeometry x="3090" y="2387.88" width="120" height="30" as="geometry" />
        </mxCell>
        <mxCell id="inVpBBwWjXf6P8Z2ml2F-456" style="edgeStyle=none;shape=link;rounded=0;orthogonalLoop=1;jettySize=auto;html=1;" edge="1" parent="1" source="inVpBBwWjXf6P8Z2ml2F-459">
          <mxGeometry relative="1" as="geometry">
            <mxPoint x="3230" y="3105" as="targetPoint" />
          </mxGeometry>
        </mxCell>
        <mxCell id="inVpBBwWjXf6P8Z2ml2F-457" style="edgeStyle=none;shape=link;rounded=0;orthogonalLoop=1;jettySize=auto;html=1;" edge="1" parent="1" source="inVpBBwWjXf6P8Z2ml2F-459">
          <mxGeometry relative="1" as="geometry">
            <mxPoint x="1060" y="3105" as="targetPoint" />
          </mxGeometry>
        </mxCell>
        <mxCell id="inVpBBwWjXf6P8Z2ml2F-458" style="edgeStyle=none;shape=link;rounded=0;orthogonalLoop=1;jettySize=auto;html=1;exitX=0.5;exitY=0;exitDx=0;exitDy=0;" edge="1" parent="1">
          <mxGeometry relative="1" as="geometry">
            <mxPoint x="1840" y="3090" as="sourcePoint" />
            <mxPoint x="1840" y="3090" as="targetPoint" />
          </mxGeometry>
        </mxCell>
        <mxCell id="inVpBBwWjXf6P8Z2ml2F-459" value="Book Appointment" style="html=1;whiteSpace=wrap;fontStyle=1" vertex="1" parent="1">
          <mxGeometry x="1890" y="3090" width="180" height="30" as="geometry" />
        </mxCell>
        <mxCell id="inVpBBwWjXf6P8Z2ml2F-466" style="edgeStyle=none;shape=link;rounded=0;orthogonalLoop=1;jettySize=auto;html=1;curved=0;exitX=1;exitY=1;exitDx=0;exitDy=-5;exitPerimeter=0;" edge="1" parent="1">
          <mxGeometry relative="1" as="geometry">
            <mxPoint x="1805" y="3235" as="sourcePoint" />
            <mxPoint x="1805" y="3235" as="targetPoint" />
          </mxGeometry>
        </mxCell>
        <mxCell id="inVpBBwWjXf6P8Z2ml2F-468" style="edgeStyle=none;shape=link;rounded=0;orthogonalLoop=1;jettySize=auto;html=1;curved=0;exitX=1;exitY=1;exitDx=0;exitDy=-5;exitPerimeter=0;" edge="1" parent="1">
          <mxGeometry relative="1" as="geometry">
            <mxPoint x="1805" y="3195" as="sourcePoint" />
            <mxPoint x="1805" y="3195" as="targetPoint" />
          </mxGeometry>
        </mxCell>
        <mxCell id="inVpBBwWjXf6P8Z2ml2F-470" style="edgeStyle=none;shape=link;rounded=0;orthogonalLoop=1;jettySize=auto;html=1;curved=0;exitX=1;exitY=1;exitDx=0;exitDy=-5;exitPerimeter=0;" edge="1" parent="1">
          <mxGeometry relative="1" as="geometry">
            <mxPoint x="1805" y="3225" as="sourcePoint" />
            <mxPoint x="1805" y="3225" as="targetPoint" />
          </mxGeometry>
        </mxCell>
        <mxCell id="inVpBBwWjXf6P8Z2ml2F-471" style="edgeStyle=none;shape=link;rounded=0;orthogonalLoop=1;jettySize=auto;html=1;curved=0;exitX=1;exitY=1;exitDx=0;exitDy=-5;exitPerimeter=0;" edge="1" parent="1">
          <mxGeometry relative="1" as="geometry">
            <mxPoint x="1785" y="3272.1800000000003" as="sourcePoint" />
            <mxPoint x="1785" y="3272.1800000000003" as="targetPoint" />
          </mxGeometry>
        </mxCell>
        <mxCell id="inVpBBwWjXf6P8Z2ml2F-481" value=":/patient-appointments-by-status" style="html=1;whiteSpace=wrap;fontStyle=1" vertex="1" parent="1">
          <mxGeometry x="1530" y="2387.88" width="180" height="30" as="geometry" />
        </mxCell>
        <mxCell id="inVpBBwWjXf6P8Z2ml2F-482" value="" style="endArrow=none;html=1;edgeStyle=orthogonalEdgeStyle;rounded=0;exitX=0.5;exitY=1;exitDx=0;exitDy=0;dashed=1;entryX=0.621;entryY=-0.097;entryDx=0;entryDy=0;entryPerimeter=0;" edge="1" parent="1">
          <mxGeometry relative="1" as="geometry">
            <mxPoint x="1626.59" y="2860" as="sourcePoint" />
            <mxPoint x="1623.3699999999997" y="3877.09" as="targetPoint" />
            <Array as="points">
              <mxPoint x="1623" y="2860" />
            </Array>
          </mxGeometry>
        </mxCell>
        <mxCell id="inVpBBwWjXf6P8Z2ml2F-484" value="" style="endArrow=none;html=1;edgeStyle=orthogonalEdgeStyle;rounded=0;exitX=0.5;exitY=1;exitDx=0;exitDy=0;dashed=1;entryX=0.5;entryY=0;entryDx=0;entryDy=0;" edge="1" parent="1" target="inVpBBwWjXf6P8Z2ml2F-483">
          <mxGeometry relative="1" as="geometry">
            <mxPoint x="1613.73" y="2417.88" as="sourcePoint" />
            <mxPoint x="1625.73" y="4180" as="targetPoint" />
            <Array as="points">
              <mxPoint x="1625" y="2418" />
            </Array>
          </mxGeometry>
        </mxCell>
        <mxCell id="inVpBBwWjXf6P8Z2ml2F-483" value="" style="html=1;points=[[0,0,0,0,5],[0,1,0,0,-5],[1,0,0,0,5],[1,1,0,0,-5]];perimeter=orthogonalPerimeter;outlineConnect=0;targetShapes=umlLifeline;portConstraint=eastwest;newEdgeStyle={&quot;curved&quot;:0,&quot;rounded&quot;:0};" vertex="1" parent="1">
          <mxGeometry x="1620" y="2790" width="10" height="70" as="geometry" />
        </mxCell>
        <mxCell id="inVpBBwWjXf6P8Z2ml2F-488" value="" style="endArrow=none;html=1;edgeStyle=orthogonalEdgeStyle;rounded=0;exitX=0.5;exitY=1;exitDx=0;exitDy=0;dashed=1;entryX=0.5;entryY=0;entryDx=0;entryDy=0;" edge="1" parent="1" target="inVpBBwWjXf6P8Z2ml2F-487">
          <mxGeometry relative="1" as="geometry">
            <mxPoint x="1768" y="2417.88" as="sourcePoint" />
            <mxPoint x="1780" y="4180" as="targetPoint" />
            <Array as="points">
              <mxPoint x="1765" y="2418" />
            </Array>
          </mxGeometry>
        </mxCell>
        <mxCell id="inVpBBwWjXf6P8Z2ml2F-487" value="" style="html=1;points=[[0,0,0,0,5],[0,1,0,0,-5],[1,0,0,0,5],[1,1,0,0,-5]];perimeter=orthogonalPerimeter;outlineConnect=0;targetShapes=umlLifeline;portConstraint=eastwest;newEdgeStyle={&quot;curved&quot;:0,&quot;rounded&quot;:0};" vertex="1" parent="1">
          <mxGeometry x="1760" y="3192.01" width="10" height="57.99" as="geometry" />
        </mxCell>
        <mxCell id="inVpBBwWjXf6P8Z2ml2F-485" value="1. findDoctors(specialty, officeLocation)" style="html=1;verticalAlign=bottom;endArrow=block;edgeStyle=elbowEdgeStyle;elbow=vertical;curved=0;rounded=0;" edge="1" parent="1" target="inVpBBwWjXf6P8Z2ml2F-487">
          <mxGeometry x="0.2658" relative="1" as="geometry">
            <mxPoint x="1060" y="3192.01" as="sourcePoint" />
            <Array as="points" />
            <mxPoint x="1750" y="3193.01" as="targetPoint" />
            <mxPoint as="offset" />
          </mxGeometry>
        </mxCell>
        <mxCell id="inVpBBwWjXf6P8Z2ml2F-489" value="2. list of doctors" style="html=1;verticalAlign=bottom;endArrow=block;edgeStyle=elbowEdgeStyle;elbow=horizontal;curved=0;rounded=0;" edge="1" parent="1">
          <mxGeometry x="-0.3143" relative="1" as="geometry">
            <mxPoint x="1760" y="3221.6800000000003" as="sourcePoint" />
            <Array as="points">
              <mxPoint x="1760" y="3221.6800000000003" />
            </Array>
            <mxPoint x="1060" y="3221.6800000000003" as="targetPoint" />
            <mxPoint as="offset" />
          </mxGeometry>
        </mxCell>
        <mxCell id="inVpBBwWjXf6P8Z2ml2F-491" value="3. getDoctorByID(doctorID)" style="html=1;verticalAlign=bottom;endArrow=block;edgeStyle=elbowEdgeStyle;elbow=vertical;curved=0;rounded=0;" edge="1" parent="1">
          <mxGeometry x="-0.0832" relative="1" as="geometry">
            <mxPoint x="1770" y="3250" as="sourcePoint" />
            <Array as="points" />
            <mxPoint x="2010" y="3250" as="targetPoint" />
            <mxPoint as="offset" />
          </mxGeometry>
        </mxCell>
        <mxCell id="inVpBBwWjXf6P8Z2ml2F-492" value="" style="html=1;points=[[0,0,0,0,5],[0,1,0,0,-5],[1,0,0,0,5],[1,1,0,0,-5]];perimeter=orthogonalPerimeter;outlineConnect=0;targetShapes=umlLifeline;portConstraint=eastwest;newEdgeStyle={&quot;curved&quot;:0,&quot;rounded&quot;:0};" vertex="1" parent="1">
          <mxGeometry x="2010" y="3250" width="10" height="200" as="geometry" />
        </mxCell>
        <mxCell id="inVpBBwWjXf6P8Z2ml2F-493" value="4. doctor info" style="html=1;verticalAlign=bottom;endArrow=block;edgeStyle=elbowEdgeStyle;elbow=horizontal;curved=0;rounded=0;" edge="1" parent="1">
          <mxGeometry x="-0.3143" relative="1" as="geometry">
            <mxPoint x="2010" y="3420" as="sourcePoint" />
            <Array as="points">
              <mxPoint x="2010" y="3420" />
            </Array>
            <mxPoint x="1060" y="3420" as="targetPoint" />
            <mxPoint as="offset" />
          </mxGeometry>
        </mxCell>
        <mxCell id="inVpBBwWjXf6P8Z2ml2F-494" value="5. getRatings(doctorID)" style="html=1;verticalAlign=bottom;endArrow=block;edgeStyle=elbowEdgeStyle;elbow=vertical;curved=0;rounded=0;" edge="1" parent="1">
          <mxGeometry x="-0.0659" y="-1" relative="1" as="geometry">
            <mxPoint x="2020" y="3260" as="sourcePoint" />
            <Array as="points" />
            <mxPoint x="2170" y="3262.01" as="targetPoint" />
            <mxPoint as="offset" />
          </mxGeometry>
        </mxCell>
        <mxCell id="inVpBBwWjXf6P8Z2ml2F-496" value="" style="endArrow=none;html=1;edgeStyle=orthogonalEdgeStyle;rounded=0;dashed=1;entryX=0.25;entryY=0;entryDx=0;entryDy=0;exitX=0.5;exitY=1;exitDx=0;exitDy=0;" edge="1" parent="1" source="inVpBBwWjXf6P8Z2ml2F-373" target="inVpBBwWjXf6P8Z2ml2F-495">
          <mxGeometry relative="1" as="geometry">
            <mxPoint x="2180" y="2418" as="sourcePoint" />
            <mxPoint x="2138" y="4250" as="targetPoint" />
            <Array as="points">
              <mxPoint x="2173" y="2418" />
            </Array>
          </mxGeometry>
        </mxCell>
        <mxCell id="inVpBBwWjXf6P8Z2ml2F-495" value="" style="html=1;points=[[0,0,0,0,5],[0,1,0,0,-5],[1,0,0,0,5],[1,1,0,0,-5]];perimeter=orthogonalPerimeter;outlineConnect=0;targetShapes=umlLifeline;portConstraint=eastwest;newEdgeStyle={&quot;curved&quot;:0,&quot;rounded&quot;:0};" vertex="1" parent="1">
          <mxGeometry x="2170" y="3260" width="10" height="30" as="geometry" />
        </mxCell>
        <mxCell id="inVpBBwWjXf6P8Z2ml2F-497" value="6. doctor ratings" style="html=1;verticalAlign=bottom;endArrow=block;edgeStyle=elbowEdgeStyle;elbow=horizontal;curved=0;rounded=0;" edge="1" parent="1">
          <mxGeometry relative="1" as="geometry">
            <mxPoint x="2180" y="3290" as="sourcePoint" />
            <Array as="points" />
            <mxPoint x="2020" y="3290" as="targetPoint" />
            <mxPoint as="offset" />
          </mxGeometry>
        </mxCell>
        <mxCell id="inVpBBwWjXf6P8Z2ml2F-499" value="7. getDoctorAvailabilities(doctorID)" style="html=1;verticalAlign=bottom;endArrow=block;edgeStyle=elbowEdgeStyle;elbow=vertical;curved=0;rounded=0;" edge="1" parent="1" target="inVpBBwWjXf6P8Z2ml2F-503">
          <mxGeometry x="0.2658" relative="1" as="geometry">
            <mxPoint x="2020" y="3381" as="sourcePoint" />
            <Array as="points" />
            <mxPoint x="1830" y="3381.3500000000004" as="targetPoint" />
            <mxPoint as="offset" />
          </mxGeometry>
        </mxCell>
        <mxCell id="inVpBBwWjXf6P8Z2ml2F-500" value="8. list of time slots" style="html=1;verticalAlign=bottom;endArrow=block;edgeStyle=elbowEdgeStyle;elbow=horizontal;curved=0;rounded=0;" edge="1" parent="1">
          <mxGeometry x="0.4118" y="-1" relative="1" as="geometry">
            <mxPoint x="2020" y="3411" as="sourcePoint" />
            <Array as="points">
              <mxPoint x="2360" y="3432.01" />
            </Array>
            <mxPoint x="2020" y="3411" as="targetPoint" />
            <mxPoint as="offset" />
          </mxGeometry>
        </mxCell>
        <mxCell id="inVpBBwWjXf6P8Z2ml2F-501" value="9. setAppointment(doctorID, patientID, status, slotID, reason)" style="html=1;verticalAlign=bottom;endArrow=block;edgeStyle=elbowEdgeStyle;elbow=vertical;curved=0;rounded=0;" edge="1" parent="1" source="inVpBBwWjXf6P8Z2ml2F-492">
          <mxGeometry x="0.0099" relative="1" as="geometry">
            <mxPoint x="2040" y="3440" as="sourcePoint" />
            <Array as="points" />
            <mxPoint x="2520" y="3450" as="targetPoint" />
            <mxPoint as="offset" />
          </mxGeometry>
        </mxCell>
        <mxCell id="inVpBBwWjXf6P8Z2ml2F-502" value="10. confirmation message" style="html=1;verticalAlign=bottom;endArrow=block;edgeStyle=elbowEdgeStyle;elbow=horizontal;curved=0;rounded=0;" edge="1" parent="1">
          <mxGeometry x="-0.0824" relative="1" as="geometry">
            <mxPoint x="2520" y="3490.2100000000005" as="sourcePoint" />
            <Array as="points" />
            <mxPoint x="1060" y="3489.8800000000006" as="targetPoint" />
            <mxPoint x="-1" as="offset" />
          </mxGeometry>
        </mxCell>
        <mxCell id="inVpBBwWjXf6P8Z2ml2F-504" value="" style="html=1;points=[[0,0,0,0,5],[0,1,0,0,-5],[1,0,0,0,5],[1,1,0,0,-5]];perimeter=orthogonalPerimeter;outlineConnect=0;targetShapes=umlLifeline;portConstraint=eastwest;newEdgeStyle={&quot;curved&quot;:0,&quot;rounded&quot;:0};" vertex="1" parent="1">
          <mxGeometry x="2520" y="3450" width="10" height="39.88" as="geometry" />
        </mxCell>
        <mxCell id="inVpBBwWjXf6P8Z2ml2F-505" value="" style="endArrow=none;html=1;edgeStyle=orthogonalEdgeStyle;rounded=0;exitX=0.5;exitY=1;exitDx=0;exitDy=0;dashed=1;entryX=0.378;entryY=0.095;entryDx=0;entryDy=0;entryPerimeter=0;" edge="1" parent="1" target="inVpBBwWjXf6P8Z2ml2F-503">
          <mxGeometry relative="1" as="geometry">
            <mxPoint x="2360" y="2417.88" as="sourcePoint" />
            <mxPoint x="2365" y="4253" as="targetPoint" />
            <Array as="points">
              <mxPoint x="2360" y="3162" />
            </Array>
          </mxGeometry>
        </mxCell>
        <mxCell id="inVpBBwWjXf6P8Z2ml2F-503" value="" style="html=1;points=[[0,0,0,0,5],[0,1,0,0,-5],[1,0,0,0,5],[1,1,0,0,-5]];perimeter=orthogonalPerimeter;outlineConnect=0;targetShapes=umlLifeline;portConstraint=eastwest;newEdgeStyle={&quot;curved&quot;:0,&quot;rounded&quot;:0};" vertex="1" parent="1">
          <mxGeometry x="2355" y="3380.6800000000003" width="10" height="29.67" as="geometry" />
        </mxCell>
        <mxCell id="inVpBBwWjXf6P8Z2ml2F-506" value="success" style="html=1;verticalAlign=bottom;endArrow=block;edgeStyle=elbowEdgeStyle;elbow=horizontal;curved=0;rounded=0;exitX=1;exitY=0;exitDx=0;exitDy=5;exitPerimeter=0;" edge="1" parent="1">
          <mxGeometry x="0.1981" y="-30" relative="1" as="geometry">
            <mxPoint x="2530" y="3467.64" as="sourcePoint" />
            <Array as="points">
              <mxPoint x="2560" y="3482.4600000000005" />
            </Array>
            <mxPoint x="2530" y="3482.4600000000005" as="targetPoint" />
            <mxPoint x="30" y="30" as="offset" />
          </mxGeometry>
        </mxCell>
        <mxCell id="inVpBBwWjXf6P8Z2ml2F-507" value=":/view-appointment-details" style="html=1;whiteSpace=wrap;fontStyle=1" vertex="1" parent="1">
          <mxGeometry x="2610" y="2387.88" width="160" height="30" as="geometry" />
        </mxCell>
        <mxCell id="inVpBBwWjXf6P8Z2ml2F-512" value="3. viewAppointmentsDetails&lt;div&gt;(appointmentID)&lt;/div&gt;" style="html=1;verticalAlign=bottom;endArrow=block;edgeStyle=elbowEdgeStyle;elbow=vertical;curved=0;rounded=0;" edge="1" parent="1" source="inVpBBwWjXf6P8Z2ml2F-73">
          <mxGeometry x="0.0071" relative="1" as="geometry">
            <mxPoint x="2176.28" y="1269.71" as="sourcePoint" />
            <Array as="points">
              <mxPoint x="2356.28" y="1269.71" />
            </Array>
            <mxPoint x="2345" y="1269.784074074074" as="targetPoint" />
            <mxPoint as="offset" />
          </mxGeometry>
        </mxCell>
        <mxCell id="inVpBBwWjXf6P8Z2ml2F-514" value="4. appointment details" style="html=1;verticalAlign=bottom;endArrow=block;edgeStyle=elbowEdgeStyle;elbow=horizontal;curved=0;rounded=0;" edge="1" parent="1">
          <mxGeometry x="-0.033" relative="1" as="geometry">
            <mxPoint x="1975" y="1300" as="sourcePoint" />
            <Array as="points">
              <mxPoint x="2345" y="1300" />
            </Array>
            <mxPoint x="1050" y="1300.05" as="targetPoint" />
            <mxPoint as="offset" />
          </mxGeometry>
        </mxCell>
        <mxCell id="inVpBBwWjXf6P8Z2ml2F-516" value="" style="endArrow=none;html=1;edgeStyle=orthogonalEdgeStyle;rounded=0;exitX=0.5;exitY=1;exitDx=0;exitDy=0;dashed=1;entryX=0.378;entryY=0.095;entryDx=0;entryDy=0;entryPerimeter=0;" edge="1" parent="1" target="inVpBBwWjXf6P8Z2ml2F-515">
          <mxGeometry relative="1" as="geometry">
            <mxPoint x="2350" y="667.88" as="sourcePoint" />
            <mxPoint x="2350" y="2203" as="targetPoint" />
            <Array as="points">
              <mxPoint x="2351" y="668" />
              <mxPoint x="2351" y="1273" />
            </Array>
          </mxGeometry>
        </mxCell>
        <mxCell id="inVpBBwWjXf6P8Z2ml2F-515" value="" style="html=1;points=[[0,0,0,0,5],[0,1,0,0,-5],[1,0,0,0,5],[1,1,0,0,-5]];perimeter=orthogonalPerimeter;outlineConnect=0;targetShapes=umlLifeline;portConstraint=eastwest;newEdgeStyle={&quot;curved&quot;:0,&quot;rounded&quot;:0};" vertex="1" parent="1">
          <mxGeometry x="2345" y="1270" width="10" height="30" as="geometry" />
        </mxCell>
        <mxCell id="inVpBBwWjXf6P8Z2ml2F-520" value="3. viewAppointmentDetails(appointmentID)" style="html=1;verticalAlign=bottom;endArrow=block;edgeStyle=elbowEdgeStyle;elbow=vertical;curved=0;rounded=0;" edge="1" parent="1" target="inVpBBwWjXf6P8Z2ml2F-522">
          <mxGeometry x="0.3096" relative="1" as="geometry">
            <mxPoint x="1630" y="2860" as="sourcePoint" />
            <Array as="points">
              <mxPoint x="2690" y="2860" />
            </Array>
            <mxPoint x="2690" y="2870" as="targetPoint" />
            <mxPoint as="offset" />
          </mxGeometry>
        </mxCell>
        <mxCell id="inVpBBwWjXf6P8Z2ml2F-521" value="6. appointment details" style="html=1;verticalAlign=bottom;endArrow=block;edgeStyle=elbowEdgeStyle;elbow=horizontal;curved=0;rounded=0;" edge="1" parent="1">
          <mxGeometry x="0.0998" relative="1" as="geometry">
            <mxPoint x="1985" y="2924.33" as="sourcePoint" />
            <Array as="points">
              <mxPoint x="2700" y="2934.33" />
            </Array>
            <mxPoint x="1060" y="2924.3799999999997" as="targetPoint" />
            <mxPoint x="1" as="offset" />
          </mxGeometry>
        </mxCell>
        <mxCell id="inVpBBwWjXf6P8Z2ml2F-522" value="" style="html=1;points=[[0,0,0,0,5],[0,1,0,0,-5],[1,0,0,0,5],[1,1,0,0,-5]];perimeter=orthogonalPerimeter;outlineConnect=0;targetShapes=umlLifeline;portConstraint=eastwest;newEdgeStyle={&quot;curved&quot;:0,&quot;rounded&quot;:0};" vertex="1" parent="1">
          <mxGeometry x="2700" y="2860" width="10" height="130" as="geometry" />
        </mxCell>
        <mxCell id="inVpBBwWjXf6P8Z2ml2F-552" value=":/view-diagnosis" style="html=1;whiteSpace=wrap;fontStyle=1" vertex="1" parent="1">
          <mxGeometry x="2935" y="2387.88" width="140" height="30" as="geometry" />
        </mxCell>
        <mxCell id="inVpBBwWjXf6P8Z2ml2F-553" value="" style="endArrow=none;html=1;edgeStyle=orthogonalEdgeStyle;rounded=0;exitX=0.5;exitY=1;exitDx=0;exitDy=0;dashed=1;" edge="1" parent="1" source="inVpBBwWjXf6P8Z2ml2F-552">
          <mxGeometry relative="1" as="geometry">
            <mxPoint x="3030.05" y="2952" as="sourcePoint" />
            <mxPoint x="3010" y="3880" as="targetPoint" />
            <Array as="points">
              <mxPoint x="3010" y="2418" />
            </Array>
          </mxGeometry>
        </mxCell>
        <mxCell id="inVpBBwWjXf6P8Z2ml2F-555" value="" style="html=1;points=[[0,0,0,0,5],[0,1,0,0,-5],[1,0,0,0,5],[1,1,0,0,-5]];perimeter=orthogonalPerimeter;outlineConnect=0;targetShapes=umlLifeline;portConstraint=eastwest;newEdgeStyle={&quot;curved&quot;:0,&quot;rounded&quot;:0};" vertex="1" parent="1">
          <mxGeometry x="3005" y="2870" width="10" height="30" as="geometry" />
        </mxCell>
        <mxCell id="inVpBBwWjXf6P8Z2ml2F-554" value="4a. viewDiagnosis(appointmentID&lt;span style=&quot;background-color: light-dark(#ffffff, var(--ge-dark-color, #121212)); color: light-dark(rgb(0, 0, 0), rgb(255, 255, 255));&quot;&gt;)&lt;/span&gt;" style="html=1;verticalAlign=bottom;endArrow=block;edgeStyle=elbowEdgeStyle;elbow=vertical;curved=0;rounded=0;" edge="1" parent="1">
          <mxGeometry x="-0.0032" relative="1" as="geometry">
            <mxPoint x="2710" y="2870.09" as="sourcePoint" />
            <Array as="points" />
            <mxPoint x="3010" y="2870" as="targetPoint" />
            <mxPoint as="offset" />
          </mxGeometry>
        </mxCell>
        <mxCell id="inVpBBwWjXf6P8Z2ml2F-557" value="4b. diagnosis" style="html=1;verticalAlign=bottom;endArrow=block;edgeStyle=elbowEdgeStyle;elbow=horizontal;curved=0;rounded=0;exitX=0;exitY=1;exitDx=0;exitDy=-5;exitPerimeter=0;" edge="1" parent="1">
          <mxGeometry x="0.0998" relative="1" as="geometry">
            <mxPoint x="3005" y="2900.29" as="sourcePoint" />
            <Array as="points">
              <mxPoint x="3005" y="2900" />
            </Array>
            <mxPoint x="2710" y="2900" as="targetPoint" />
            <mxPoint x="1" as="offset" />
          </mxGeometry>
        </mxCell>
        <mxCell id="inVpBBwWjXf6P8Z2ml2F-570" value="&lt;b&gt;opt&lt;/b&gt;" style="shape=umlFrame;whiteSpace=wrap;html=1;pointerEvents=0;" vertex="1" parent="1">
          <mxGeometry x="2770" y="2940" width="470" height="90" as="geometry" />
        </mxCell>
        <mxCell id="inVpBBwWjXf6P8Z2ml2F-571" value="5. setRating(stars, comment, doctorID)" style="html=1;verticalAlign=bottom;endArrow=block;edgeStyle=elbowEdgeStyle;elbow=vertical;curved=0;rounded=0;" edge="1" parent="1" source="inVpBBwWjXf6P8Z2ml2F-522">
          <mxGeometry x="0.3096" relative="1" as="geometry">
            <mxPoint x="1060" y="2990" as="sourcePoint" />
            <Array as="points" />
            <mxPoint x="3150" y="2990" as="targetPoint" />
            <mxPoint as="offset" />
          </mxGeometry>
        </mxCell>
        <mxCell id="inVpBBwWjXf6P8Z2ml2F-572" value="" style="endArrow=none;html=1;edgeStyle=orthogonalEdgeStyle;rounded=0;exitX=0.5;exitY=1;exitDx=0;exitDy=0;dashed=1;" edge="1" parent="1">
          <mxGeometry relative="1" as="geometry">
            <mxPoint x="3150" y="2417.88" as="sourcePoint" />
            <mxPoint x="3160" y="3880" as="targetPoint" />
            <Array as="points">
              <mxPoint x="3155" y="2418" />
            </Array>
          </mxGeometry>
        </mxCell>
        <mxCell id="inVpBBwWjXf6P8Z2ml2F-573" value="" style="html=1;points=[[0,0,0,0,5],[0,1,0,0,-5],[1,0,0,0,5],[1,1,0,0,-5]];perimeter=orthogonalPerimeter;outlineConnect=0;targetShapes=umlLifeline;portConstraint=eastwest;newEdgeStyle={&quot;curved&quot;:0,&quot;rounded&quot;:0};" vertex="1" parent="1">
          <mxGeometry x="3150" y="2990.5" width="10" height="30" as="geometry" />
        </mxCell>
        <mxCell id="inVpBBwWjXf6P8Z2ml2F-574" value="&lt;b&gt;[ if the patient wants to rate the doctor ]&lt;/b&gt;" style="text;html=1;align=center;verticalAlign=middle;resizable=0;points=[];autosize=1;strokeColor=none;fillColor=none;" vertex="1" parent="1">
          <mxGeometry x="2830" y="2940" width="250" height="30" as="geometry" />
        </mxCell>
        <mxCell id="inVpBBwWjXf6P8Z2ml2F-576" value="success" style="html=1;verticalAlign=bottom;endArrow=block;edgeStyle=elbowEdgeStyle;elbow=horizontal;curved=0;rounded=0;exitX=1;exitY=0;exitDx=0;exitDy=5;exitPerimeter=0;" edge="1" parent="1">
          <mxGeometry x="0.1981" y="-30" relative="1" as="geometry">
            <mxPoint x="3160" y="3005.68" as="sourcePoint" />
            <Array as="points">
              <mxPoint x="3190" y="3020.5" />
            </Array>
            <mxPoint x="3160" y="3020.5" as="targetPoint" />
            <mxPoint x="30" y="30" as="offset" />
          </mxGeometry>
        </mxCell>
        <mxCell id="inVpBBwWjXf6P8Z2ml2F-577" value="3. viewAppointmentsDetails&lt;div&gt;(appointmentID)&lt;/div&gt;" style="html=1;verticalAlign=bottom;endArrow=block;edgeStyle=elbowEdgeStyle;elbow=vertical;curved=0;rounded=0;" edge="1" parent="1" target="inVpBBwWjXf6P8Z2ml2F-337">
          <mxGeometry x="0.0071" relative="1" as="geometry">
            <mxPoint x="2170" y="1480.29" as="sourcePoint" />
            <Array as="points">
              <mxPoint x="2351.28" y="1480" />
            </Array>
            <mxPoint x="2340" y="1480.074074074074" as="targetPoint" />
            <mxPoint as="offset" />
          </mxGeometry>
        </mxCell>
        <mxCell id="inVpBBwWjXf6P8Z2ml2F-578" value="3. viewAppointmentsDetails&lt;div&gt;(appointmentID)&lt;/div&gt;" style="html=1;verticalAlign=bottom;endArrow=block;edgeStyle=elbowEdgeStyle;elbow=vertical;curved=0;rounded=0;" edge="1" parent="1">
          <mxGeometry x="0.0872" relative="1" as="geometry">
            <mxPoint x="2175" y="1790.29" as="sourcePoint" />
            <Array as="points">
              <mxPoint x="2356.28" y="1790" />
            </Array>
            <mxPoint x="2350" y="1790" as="targetPoint" />
            <mxPoint as="offset" />
          </mxGeometry>
        </mxCell>
        <mxCell id="inVpBBwWjXf6P8Z2ml2F-579" value="1. getPatientAppointmentsByStatus(doctorID, status)" style="html=1;verticalAlign=bottom;endArrow=block;edgeStyle=elbowEdgeStyle;elbow=vertical;curved=0;rounded=0;exitX=1;exitY=0.445;exitDx=0;exitDy=0;exitPerimeter=0;" edge="1" parent="1">
          <mxGeometry x="0.179" relative="1" as="geometry">
            <mxPoint x="1060.0000000000005" y="3569.9999999999995" as="sourcePoint" />
            <Array as="points" />
            <mxPoint x="1620" y="3570.27" as="targetPoint" />
            <mxPoint as="offset" />
          </mxGeometry>
        </mxCell>
        <mxCell id="inVpBBwWjXf6P8Z2ml2F-580" value="2. list of appointments" style="html=1;verticalAlign=bottom;endArrow=block;edgeStyle=elbowEdgeStyle;elbow=horizontal;curved=0;rounded=0;" edge="1" parent="1">
          <mxGeometry x="-0.1228" relative="1" as="geometry">
            <mxPoint x="1630" y="3610.27" as="sourcePoint" />
            <Array as="points">
              <mxPoint x="1630" y="3610.27" />
            </Array>
            <mxPoint x="1060.0000000000005" y="3610.27" as="targetPoint" />
            <mxPoint as="offset" />
          </mxGeometry>
        </mxCell>
        <mxCell id="inVpBBwWjXf6P8Z2ml2F-581" value="" style="html=1;points=[[0,0,0,0,5],[0,1,0,0,-5],[1,0,0,0,5],[1,1,0,0,-5]];perimeter=orthogonalPerimeter;outlineConnect=0;targetShapes=umlLifeline;portConstraint=eastwest;newEdgeStyle={&quot;curved&quot;:0,&quot;rounded&quot;:0};" vertex="1" parent="1">
          <mxGeometry x="1620" y="3570.27" width="10" height="70" as="geometry" />
        </mxCell>
        <mxCell id="inVpBBwWjXf6P8Z2ml2F-582" value="3. viewAppointmentDetails(appointmentID)" style="html=1;verticalAlign=bottom;endArrow=block;edgeStyle=elbowEdgeStyle;elbow=vertical;curved=0;rounded=0;" edge="1" parent="1" target="inVpBBwWjXf6P8Z2ml2F-584">
          <mxGeometry x="0.3096" relative="1" as="geometry">
            <mxPoint x="1630" y="3640.27" as="sourcePoint" />
            <Array as="points">
              <mxPoint x="2690" y="3640.27" />
            </Array>
            <mxPoint x="2690" y="3650.27" as="targetPoint" />
            <mxPoint as="offset" />
          </mxGeometry>
        </mxCell>
        <mxCell id="inVpBBwWjXf6P8Z2ml2F-583" value="6. appointment details" style="html=1;verticalAlign=bottom;endArrow=block;edgeStyle=elbowEdgeStyle;elbow=horizontal;curved=0;rounded=0;" edge="1" parent="1">
          <mxGeometry x="0.0998" relative="1" as="geometry">
            <mxPoint x="1985" y="3670" as="sourcePoint" />
            <Array as="points">
              <mxPoint x="2700" y="3680" />
            </Array>
            <mxPoint x="1060" y="3670.0499999999997" as="targetPoint" />
            <mxPoint x="1" as="offset" />
          </mxGeometry>
        </mxCell>
        <mxCell id="inVpBBwWjXf6P8Z2ml2F-584" value="" style="html=1;points=[[0,0,0,0,5],[0,1,0,0,-5],[1,0,0,0,5],[1,1,0,0,-5]];perimeter=orthogonalPerimeter;outlineConnect=0;targetShapes=umlLifeline;portConstraint=eastwest;newEdgeStyle={&quot;curved&quot;:0,&quot;rounded&quot;:0};" vertex="1" parent="1">
          <mxGeometry x="2700" y="3640.27" width="10" height="49.73" as="geometry" />
        </mxCell>
        <mxCell id="inVpBBwWjXf6P8Z2ml2F-588" value="&lt;b&gt;opt&lt;/b&gt;" style="shape=umlFrame;whiteSpace=wrap;html=1;pointerEvents=0;" vertex="1" parent="1">
          <mxGeometry x="2740" y="3640.27" width="470" height="109.73" as="geometry" />
        </mxCell>
        <mxCell id="inVpBBwWjXf6P8Z2ml2F-589" value="" style="html=1;verticalAlign=bottom;endArrow=block;edgeStyle=elbowEdgeStyle;elbow=vertical;curved=0;rounded=0;" edge="1" parent="1">
          <mxGeometry x="0.3096" relative="1" as="geometry">
            <mxPoint x="2710" y="3690" as="sourcePoint" />
            <Array as="points" />
            <mxPoint x="2850" y="3690" as="targetPoint" />
            <mxPoint as="offset" />
          </mxGeometry>
        </mxCell>
        <mxCell id="inVpBBwWjXf6P8Z2ml2F-590" value="" style="html=1;points=[[0,0,0,0,5],[0,1,0,0,-5],[1,0,0,0,5],[1,1,0,0,-5]];perimeter=orthogonalPerimeter;outlineConnect=0;targetShapes=umlLifeline;portConstraint=eastwest;newEdgeStyle={&quot;curved&quot;:0,&quot;rounded&quot;:0};" vertex="1" parent="1">
          <mxGeometry x="2850" y="3690.27" width="10" height="30" as="geometry" />
        </mxCell>
        <mxCell id="inVpBBwWjXf6P8Z2ml2F-591" value="&lt;b&gt;[ if the patient wants to cancel their appointment]&lt;/b&gt;" style="text;html=1;align=center;verticalAlign=middle;resizable=0;points=[];autosize=1;strokeColor=none;fillColor=none;" vertex="1" parent="1">
          <mxGeometry x="2805" y="3640.27" width="300" height="30" as="geometry" />
        </mxCell>
        <mxCell id="inVpBBwWjXf6P8Z2ml2F-592" value="success" style="html=1;verticalAlign=bottom;endArrow=block;edgeStyle=elbowEdgeStyle;elbow=horizontal;curved=0;rounded=0;exitX=1;exitY=0;exitDx=0;exitDy=5;exitPerimeter=0;" edge="1" parent="1">
          <mxGeometry x="0.1981" y="-30" relative="1" as="geometry">
            <mxPoint x="2860" y="3705.45" as="sourcePoint" />
            <Array as="points">
              <mxPoint x="2890" y="3720.27" />
            </Array>
            <mxPoint x="2860" y="3720.27" as="targetPoint" />
            <mxPoint x="30" y="30" as="offset" />
          </mxGeometry>
        </mxCell>
        <mxCell id="inVpBBwWjXf6P8Z2ml2F-593" value=":/patient-appointments-by-status" style="html=1;whiteSpace=wrap;fontStyle=1" vertex="1" parent="1">
          <mxGeometry x="1510" y="3880" width="180" height="30" as="geometry" />
        </mxCell>
        <mxCell id="inVpBBwWjXf6P8Z2ml2F-596" value=":/cancel-appointment" style="html=1;whiteSpace=wrap;fontStyle=1" vertex="1" parent="1">
          <mxGeometry x="2795" y="3880" width="140" height="30" as="geometry" />
        </mxCell>
        <mxCell id="inVpBBwWjXf6P8Z2ml2F-597" value=":/view-diagnosis" style="html=1;whiteSpace=wrap;fontStyle=1" vertex="1" parent="1">
          <mxGeometry x="2950" y="3880" width="140" height="30" as="geometry" />
        </mxCell>
        <mxCell id="inVpBBwWjXf6P8Z2ml2F-598" value=":/set-rating" style="html=1;whiteSpace=wrap;fontStyle=1" vertex="1" parent="1">
          <mxGeometry x="3105" y="3880" width="120" height="30" as="geometry" />
        </mxCell>
      </root>
    </mxGraphModel>
  </diagram>
</mxfile>
